<svg xmlns="http://www.w3.org/2000/svg" width="1200" height="360" viewBox="0 0 1200 360" fill="none" role="img" aria-labelledby="banner-title banner-desc">
  <title id="banner-title">Dylan W. Lim | Finance + Computer Science</title>
  <desc id="banner-desc">Dylan W. Lim studies Finance with a Computer Science minor at Fordham University. Interests: finance, software, and healthcare. Website: dylanwlim.com. Email: dylan@wlim.work. A custom blue woven ribbon accompanies the typography on a deep navy background.</desc>
  <defs>
    <linearGradient id="canvas" x1="0" y1="0" x2="1200" y2="360" gradientUnits="userSpaceOnUse">
      <stop stop-color="#080F1C"/>
      <stop offset=".58" stop-color="#0B1526"/>
      <stop offset="1" stop-color="#0D1C32"/>
    </linearGradient>
    <radialGradient id="art-light" cx="0" cy="0" r="1" gradientUnits="userSpaceOnUse" gradientTransform="translate(968 153) rotate(90) scale(260 336)">
      <stop stop-color="#245DC6" stop-opacity=".24"/>
      <stop offset=".65" stop-color="#1D4C99" stop-opacity=".07"/>
      <stop offset="1" stop-color="#1D4C99" stop-opacity="0"/>
    </radialGradient>
    <linearGradient id="rule" x1="64" y1="0" x2="1136" y2="0" gradientUnits="userSpaceOnUse">
      <stop stop-color="#4E6F9B" stop-opacity=".46"/>
      <stop offset=".55" stop-color="#42618C" stop-opacity=".28"/>
      <stop offset="1" stop-color="#729CE5" stop-opacity=".34"/>
    </linearGradient>
    <linearGradient id="top-edge" x1="64" y1="0" x2="1136" y2="0" gradientUnits="userSpaceOnUse">
      <stop stop-color="#5985CB" stop-opacity="0"/>
      <stop offset=".72" stop-color="#5A94EF" stop-opacity=".3"/>
      <stop offset="1" stop-color="#A9DFFF" stop-opacity="0"/>
    </linearGradient>
    <linearGradient id="ribbon-thread" x1="783" y1="65" x2="1101" y2="277" gradientUnits="userSpaceOnUse">
      <stop stop-color="#A1DFFF"/>
      <stop offset=".40" stop-color="#5C9FF9"/>
      <stop offset="1" stop-color="#2E72DC"/>
    </linearGradient>
    <linearGradient id="ribbon-edge" x1="800" y1="45" x2="1100" y2="271" gradientUnits="userSpaceOnUse">
      <stop stop-color="#B7E7FF"/>
      <stop offset=".58" stop-color="#78A8F3"/>
      <stop offset="1" stop-color="#4B8BDD"/>
    </linearGradient>
    <clipPath id="canvas-clip"><rect width="1200" height="360" rx="22"/></clipPath>
    <clipPath id="art-clip"><path d="M724 20H1160V282H724Z"/></clipPath>
  </defs>
  <g clip-path="url(#canvas-clip)">
    <!-- Background: one uninterrupted canvas with a restrained local light. -->
    <rect width="1200" height="360" fill="url(#canvas)"/>
    <rect width="1200" height="360" fill="url(#art-light)"/>
    <path d="M64 1H1136" stroke="url(#top-edge)"/>

    <!-- Decorative vector sculpture. All geometry is local and script free. -->
    <g id="woven-ribbon" aria-hidden="true" clip-path="url(#art-clip)" stroke-linejoin="round" stroke-linecap="round">
      <path d="M914.0 181.9L917.3 185.5L920.6 189.1L890.5 224.3L887.3 222.9L884.1 221.4Z" fill="#0f284c" stroke="#0f284c" stroke-width=".55"/>
<path d="M912.8 183.5L919.4 190.6M911.5 185.1L918.1 192.0M910.3 186.8L916.9 193.5M909.0 188.5L915.6 195.0M907.8 190.1L914.3 196.5M906.5 191.8L913.0 198.0M905.2 193.6L911.7 199.5M903.8 195.3L910.4 201.1M902.5 197.0L909.1 202.6M901.2 198.8L907.7 204.2M899.8 200.6L906.4 205.8M898.5 202.4L905.0 207.4M897.1 204.2L903.6 209.0M895.7 206.1L902.2 210.7M894.3 207.9L900.8 212.3M892.9 209.8L899.3 214.0M891.4 211.7L897.9 215.7M890.0 213.6L896.4 217.4M888.5 215.6L895.0 219.1M887.1 217.5L893.5 220.8M885.6 219.5L892.0 222.5" stroke="url(#ribbon-thread)" stroke-opacity="0.64" stroke-width="1"/>
<path d="M914.0 181.9L917.3 185.5L920.6 189.1M884.1 221.4L887.3 222.9L890.5 224.3" stroke="url(#ribbon-edge)" stroke-opacity="0.64" stroke-width="1.5"/>
<path d="M907.8 174.5L910.8 178.2L914.0 181.9L884.1 221.4L880.9 219.9L877.7 218.3Z" fill="#0f284b" stroke="#0f284b" stroke-width=".55"/>
<path d="M906.5 176.3L912.8 183.5M905.3 178.1L911.5 185.1M904.0 179.9L910.3 186.8M902.7 181.8L909.0 188.5M901.5 183.6L907.8 190.1M900.2 185.5L906.5 191.8M898.9 187.4L905.2 193.6M897.5 189.3L903.8 195.3M896.2 191.2L902.5 197.0M894.9 193.2L901.2 198.8M893.5 195.2L899.8 200.6M892.1 197.2L898.5 202.4M890.7 199.2L897.1 204.2M889.3 201.2L895.7 206.1M887.9 203.3L894.3 207.9M886.5 205.4L892.9 209.8M885.1 207.5L891.4 211.7M883.6 209.6L890.0 213.6M882.2 211.7L888.5 215.6M880.7 213.9L887.1 217.5M879.2 216.1L885.6 219.5" stroke="url(#ribbon-thread)" stroke-opacity="0.64" stroke-width="1"/>
<path d="M907.8 174.5L910.8 178.2L914.0 181.9M877.7 218.3L880.9 219.9L884.1 221.4" stroke="url(#ribbon-edge)" stroke-opacity="0.64" stroke-width="1.5"/>
<path d="M920.6 189.1L924.0 192.7L927.5 196.2L896.8 226.8L893.7 225.6L890.5 224.3Z" fill="#0f284c" stroke="#0f284c" stroke-width=".55"/>
<path d="M919.4 190.6L926.3 197.5M918.1 192.0L925.0 198.7M916.9 193.5L923.8 200.0M915.6 195.0L922.5 201.3M914.3 196.5L921.2 202.6M913.0 198.0L919.9 204.0M911.7 199.5L918.5 205.3M910.4 201.1L917.2 206.6M909.1 202.6L915.8 208.0M907.7 204.2L914.4 209.4M906.4 205.8L913.1 210.8M905.0 207.4L911.7 212.2M903.6 209.0L910.2 213.6M902.2 210.7L908.8 215.0M900.8 212.3L907.4 216.4M899.3 214.0L905.9 217.9M897.9 215.7L904.4 219.3M896.4 217.4L902.9 220.8M895.0 219.1L901.4 222.3M893.5 220.8L899.9 223.8M892.0 222.5L898.4 225.3" stroke="url(#ribbon-thread)" stroke-opacity="0.64" stroke-width="1"/>
<path d="M920.6 189.1L924.0 192.7L927.5 196.2M890.5 224.3L893.7 225.6L896.8 226.8" stroke="url(#ribbon-edge)" stroke-opacity="0.64" stroke-width="1.5"/>
<path d="M901.9 167.1L904.8 170.8L907.8 174.5L877.7 218.3L874.6 216.5L871.4 214.7Z" fill="#0f274b" stroke="#0f274b" stroke-width=".55"/>
<path d="M900.6 169.0L906.5 176.3M899.4 170.9L905.3 178.1M898.1 172.9L904.0 179.9M896.8 174.9L902.7 181.8M895.5 177.0L901.5 183.6M894.1 179.0L900.2 185.5M892.8 181.1L898.9 187.4M891.5 183.2L897.5 189.3M890.1 185.3L896.2 191.2M888.7 187.4L894.9 193.2M887.4 189.6L893.5 195.2M886.0 191.7L892.1 197.2M884.6 193.9L890.7 199.2M883.2 196.2L889.3 201.2M881.7 198.4L887.9 203.3M880.3 200.7L886.5 205.4M878.8 203.0L885.1 207.5M877.4 205.3L883.6 209.6M875.9 207.6L882.2 211.7M874.4 210.0L880.7 213.9M872.9 212.3L879.2 216.1" stroke="url(#ribbon-thread)" stroke-opacity="0.63" stroke-width="1"/>
<path d="M901.9 167.1L904.8 170.8L907.8 174.5M871.4 214.7L874.6 216.5L877.7 218.3" stroke="url(#ribbon-edge)" stroke-opacity="0.63" stroke-width="1.5"/>
<path d="M927.5 196.2L931.1 199.7L934.8 203.1L903.1 229.0L900.0 227.9L896.8 226.8Z" fill="#0f284c" stroke="#0f284c" stroke-width=".55"/>
<path d="M926.3 197.5L933.5 204.2M925.0 198.7L932.2 205.3M923.8 200.0L930.9 206.4M922.5 201.3L929.6 207.5M921.2 202.6L928.3 208.6M919.9 204.0L926.9 209.7M918.5 205.3L925.5 210.8M917.2 206.6L924.2 212.0M915.8 208.0L922.8 213.1M914.4 209.4L921.3 214.3M913.1 210.8L919.9 215.5M911.7 212.2L918.5 216.7M910.2 213.6L917.0 217.8M908.8 215.0L915.5 219.0M907.4 216.4L914.0 220.2M905.9 217.9L912.5 221.5M904.4 219.3L911.0 222.7M902.9 220.8L909.5 223.9M901.4 222.3L907.9 225.2M899.9 223.8L906.3 226.4M898.4 225.3L904.7 227.7" stroke="url(#ribbon-thread)" stroke-opacity="0.64" stroke-width="1"/>
<path d="M927.5 196.2L931.1 199.7L934.8 203.1M896.8 226.8L900.0 227.9L903.1 229.0" stroke="url(#ribbon-edge)" stroke-opacity="0.64" stroke-width="1.5"/>
<path d="M896.4 159.5L899.1 163.3L901.9 167.1L871.4 214.7L868.3 212.8L865.1 210.9Z" fill="#0f274a" stroke="#0f274a" stroke-width=".55"/>
<path d="M895.1 161.6L900.6 169.0M893.8 163.7L899.4 170.9M892.5 165.8L898.1 172.9M891.1 168.0L896.8 174.9M889.8 170.2L895.5 177.0M888.4 172.4L894.1 179.0M887.1 174.6L892.8 181.1M885.7 176.8L891.5 183.2M884.3 179.1L890.1 185.3M882.9 181.4L888.7 187.4M881.5 183.7L887.4 189.6M880.0 186.1L886.0 191.7M878.6 188.5L884.6 193.9M877.2 190.9L883.2 196.2M875.7 193.3L881.7 198.4M874.2 195.7L880.3 200.7M872.7 198.2L878.8 203.0M871.2 200.7L877.4 205.3M869.7 203.2L875.9 207.6M868.2 205.7L874.4 210.0M866.7 208.3L872.9 212.3" stroke="url(#ribbon-thread)" stroke-opacity="0.63" stroke-width="1"/>
<path d="M896.4 159.5L899.1 163.3L901.9 167.1M865.1 210.9L868.3 212.8L871.4 214.7" stroke="url(#ribbon-edge)" stroke-opacity="0.63" stroke-width="1.5"/>
<path d="M934.8 203.1L938.5 206.5L942.3 209.8L909.4 230.8L906.3 229.9L903.1 229.0Z" fill="#0f284c" stroke="#0f284c" stroke-width=".55"/>
<path d="M933.5 204.2L941.0 210.7M932.2 205.3L939.7 211.6M930.9 206.4L938.3 212.5M929.6 207.5L937.0 213.4M928.3 208.6L935.6 214.3M926.9 209.7L934.2 215.2M925.5 210.8L932.8 216.2M924.2 212.0L931.3 217.1M922.8 213.1L929.9 218.0M921.3 214.3L928.4 219.0M919.9 215.5L926.9 219.9M918.5 216.7L925.4 220.9M917.0 217.8L923.9 221.8M915.5 219.0L922.3 222.8M914.0 220.2L920.8 223.8M912.5 221.5L919.2 224.8M911.0 222.7L917.6 225.7M909.5 223.9L916.0 226.7M907.9 225.2L914.4 227.7M906.3 226.4L912.7 228.7M904.7 227.7L911.1 229.8" stroke="url(#ribbon-thread)" stroke-opacity="0.64" stroke-width="1"/>
<path d="M934.8 203.1L938.5 206.5L942.3 209.8M903.1 229.0L906.3 229.9L909.4 230.8" stroke="url(#ribbon-edge)" stroke-opacity="0.64" stroke-width="1.5"/>
<path d="M891.3 151.9L893.8 155.7L896.4 159.5L865.1 210.9L862.0 208.8L858.9 206.7Z" fill="#0f2648" stroke="#0f2648" stroke-width=".55"/>
<path d="M890.0 154.1L895.1 161.6M888.6 156.4L893.8 163.7M887.2 158.6L892.5 165.8M885.9 160.9L891.1 168.0M884.5 163.3L889.8 170.2M883.1 165.6L888.4 172.4M881.6 168.0L887.1 174.6M880.2 170.4L885.7 176.8M878.8 172.8L884.3 179.1M877.3 175.3L882.9 181.4M875.8 177.8L881.5 183.7M874.4 180.3L880.0 186.1M872.9 182.8L878.6 188.5M871.4 185.3L877.2 190.9M869.8 187.9L875.7 193.3M868.3 190.5L874.2 195.7M866.8 193.1L872.7 198.2M865.2 195.8L871.2 200.7M863.7 198.5L869.7 203.2M862.1 201.2L868.2 205.7M860.5 203.9L866.7 208.3" stroke="url(#ribbon-thread)" stroke-opacity="0.62" stroke-width="1"/>
<path d="M891.3 151.9L893.8 155.7L896.4 159.5M858.9 206.7L862.0 208.8L865.1 210.9" stroke="url(#ribbon-edge)" stroke-opacity="0.62" stroke-width="1.5"/>
<path d="M942.3 209.8L946.2 213.1L950.2 216.3L915.6 232.2L912.5 231.5L909.4 230.8Z" fill="#0f284b" stroke="#0f284b" stroke-width=".55"/>
<path d="M941.0 210.7L948.8 217.0M939.7 211.6L947.4 217.7M938.3 212.5L946.0 218.4M937.0 213.4L944.6 219.1M935.6 214.3L943.1 219.8M934.2 215.2L941.6 220.5M932.8 216.2L940.1 221.2M931.3 217.1L938.6 221.9M929.9 218.0L937.1 222.6M928.4 219.0L935.6 223.3M926.9 219.9L934.0 224.1M925.4 220.9L932.4 224.8M923.9 221.8L930.8 225.5M922.3 222.8L929.2 226.3M920.8 223.8L927.6 227.0M919.2 224.8L925.9 227.7M917.6 225.7L924.2 228.5M916.0 226.7L922.5 229.2M914.4 227.7L920.8 230.0M912.7 228.7L919.1 230.7M911.1 229.8L917.4 231.5" stroke="url(#ribbon-thread)" stroke-opacity="0.64" stroke-width="1"/>
<path d="M942.3 209.8L946.2 213.1L950.2 216.3M909.4 230.8L912.5 231.5L915.6 232.2" stroke="url(#ribbon-edge)" stroke-opacity="0.64" stroke-width="1.5"/>
<path d="M886.7 144.2L888.9 148.0L891.3 151.9L858.9 206.7L855.8 204.5L852.8 202.2Z" fill="#0e2547" stroke="#0e2547" stroke-width=".55"/>
<path d="M885.3 146.6L890.0 154.1M883.8 149.0L888.6 156.4M882.4 151.4L887.2 158.6M880.9 153.8L885.9 160.9M879.5 156.3L884.5 163.3M878.0 158.8L883.1 165.6M876.5 161.3L881.6 168.0M875.0 163.8L880.2 170.4M873.5 166.4L878.8 172.8M872.0 169.0L877.3 175.3M870.5 171.6L875.8 177.8M868.9 174.3L874.4 180.3M867.4 176.9L872.9 182.8M865.8 179.6L871.4 185.3M864.2 182.3L869.8 187.9M862.6 185.1L868.3 190.5M861.0 187.9L866.8 193.1M859.4 190.7L865.2 195.8M857.8 193.5L863.7 198.5M856.1 196.4L862.1 201.2M854.5 199.3L860.5 203.9" stroke="url(#ribbon-thread)" stroke-opacity="0.61" stroke-width="1"/>
<path d="M886.7 144.2L888.9 148.0L891.3 151.9M852.8 202.2L855.8 204.5L858.9 206.7" stroke="url(#ribbon-edge)" stroke-opacity="0.61" stroke-width="1.5"/>
<path d="M950.2 216.3L954.2 219.4L958.3 222.5L921.7 233.4L918.7 232.8L915.6 232.2Z" fill="#0f274b" stroke="#0f274b" stroke-width=".55"/>
<path d="M948.8 217.0L956.8 223.0M947.4 217.7L955.4 223.5M946.0 218.4L953.9 224.0M944.6 219.1L952.4 224.5M943.1 219.8L950.8 225.0M941.6 220.5L949.3 225.5M940.1 221.2L947.7 226.0M938.6 221.9L946.1 226.4M937.1 222.6L944.5 226.9M935.6 223.3L942.8 227.4M934.0 224.1L941.2 227.9M932.4 224.8L939.5 228.4M930.8 225.5L937.8 228.9M929.2 226.3L936.1 229.4M927.6 227.0L934.4 229.9M925.9 227.7L932.6 230.4M924.2 228.5L930.9 230.9M922.5 229.2L929.1 231.4M920.8 230.0L927.3 231.9M919.1 230.7L925.4 232.4M917.4 231.5L923.6 232.9" stroke="url(#ribbon-thread)" stroke-opacity="0.63" stroke-width="1"/>
<path d="M950.2 216.3L954.2 219.4L958.3 222.5M915.6 232.2L918.7 232.8L921.7 233.4" stroke="url(#ribbon-edge)" stroke-opacity="0.63" stroke-width="1.5"/>
<path d="M882.5 136.6L884.5 140.4L886.7 144.2L852.8 202.2L849.8 199.8L846.8 197.3Z" fill="#0e2445" stroke="#0e2445" stroke-width=".55"/>
<path d="M881.0 139.0L885.3 146.6M879.5 141.5L883.8 149.0M877.9 144.1L882.4 151.4M876.4 146.6L880.9 153.8M874.9 149.2L879.5 156.3M873.3 151.8L878.0 158.8M871.8 154.5L876.5 161.3M870.2 157.2L875.0 163.8M868.6 159.8L873.5 166.4M867.0 162.6L872.0 169.0M865.4 165.3L870.5 171.6M863.7 168.1L868.9 174.3M862.1 170.9L867.4 176.9M860.5 173.7L865.8 179.6M858.8 176.6L864.2 182.3M857.1 179.5L862.6 185.1M855.4 182.4L861.0 187.9M853.7 185.3L859.4 190.7M852.0 188.3L857.8 193.5M850.3 191.3L856.1 196.4M848.6 194.3L854.5 199.3" stroke="url(#ribbon-thread)" stroke-opacity="0.60" stroke-width="1"/>
<path d="M882.5 136.6L884.5 140.4L886.7 144.2M846.8 197.3L849.8 199.8L852.8 202.2" stroke="url(#ribbon-edge)" stroke-opacity="0.60" stroke-width="1.5"/>
<path d="M958.3 222.5L962.4 225.5L966.6 228.5L927.7 234.1L924.7 233.8L921.7 233.4Z" fill="#0f274a" stroke="#0f274a" stroke-width=".55"/>
<path d="M956.8 223.0L965.1 228.8M955.4 223.5L963.5 229.0M953.9 224.0L961.9 229.3M952.4 224.5L960.3 229.6M950.8 225.0L958.7 229.9M949.3 225.5L957.0 230.1M947.7 226.0L955.4 230.4M946.1 226.4L953.7 230.7M944.5 226.9L951.9 230.9M942.8 227.4L950.2 231.2M941.2 227.9L948.4 231.5M939.5 228.4L946.7 231.7M937.8 228.9L944.9 232.0M936.1 229.4L943.0 232.2M934.4 229.9L941.2 232.5M932.6 230.4L939.3 232.7M930.9 230.9L937.4 233.0M929.1 231.4L935.5 233.2M927.3 231.9L933.6 233.4M925.4 232.4L931.7 233.7M923.6 232.9L929.7 233.9" stroke="url(#ribbon-thread)" stroke-opacity="0.63" stroke-width="1"/>
<path d="M958.3 222.5L962.4 225.5L966.6 228.5M921.7 233.4L924.7 233.8L927.7 234.1" stroke="url(#ribbon-edge)" stroke-opacity="0.63" stroke-width="1.5"/>
<path d="M878.7 128.9L880.5 132.7L882.5 136.6L846.8 197.3L843.9 194.8L841.0 192.2Z" fill="#0e2444" stroke="#0e2444" stroke-width=".55"/>
<path d="M877.1 131.5L881.0 139.0M875.5 134.1L879.5 141.5M873.9 136.8L877.9 144.1M872.3 139.4L876.4 146.6M870.7 142.1L874.9 149.2M869.0 144.9L873.3 151.8M867.4 147.6L871.8 154.5M865.7 150.4L870.2 157.2M864.0 153.2L868.6 159.8M862.3 156.0L867.0 162.6M860.6 158.9L865.4 165.3M858.9 161.8L863.7 168.1M857.1 164.7L862.1 170.9M855.4 167.7L860.5 173.7M853.6 170.6L858.8 176.6M851.9 173.6L857.1 179.5M850.1 176.7L855.4 182.4M848.3 179.7L853.7 185.3M846.5 182.8L852.0 188.3M844.7 185.9L850.3 191.3M842.8 189.1L848.6 194.3" stroke="url(#ribbon-thread)" stroke-opacity="0.58" stroke-width="1"/>
<path d="M878.7 128.9L880.5 132.7L882.5 136.6M841.0 192.2L843.9 194.8L846.8 197.3" stroke="url(#ribbon-edge)" stroke-opacity="0.58" stroke-width="1.5"/>
<path d="M966.6 228.5L970.9 231.3L975.2 234.1L933.6 234.6L930.7 234.4L927.7 234.1Z" fill="#0f2649" stroke="#0f2649" stroke-width=".55"/>
<path d="M965.1 228.8L973.6 234.2M963.5 229.0L971.9 234.3M961.9 229.3L970.2 234.3M960.3 229.6L968.5 234.4M958.7 229.9L966.7 234.5M957.0 230.1L964.9 234.5M955.4 230.4L963.1 234.6M953.7 230.7L961.3 234.6M951.9 230.9L959.5 234.6M950.2 231.2L957.6 234.7M948.4 231.5L955.8 234.7M946.7 231.7L953.9 234.7M944.9 232.0L951.9 234.7M943.0 232.2L950.0 234.7M941.2 232.5L948.0 234.7M939.3 232.7L946.0 234.7M937.4 233.0L944.0 234.7M935.5 233.2L942.0 234.7M933.6 233.4L939.9 234.7M931.7 233.7L937.8 234.6M929.7 233.9L935.7 234.6" stroke="url(#ribbon-thread)" stroke-opacity="0.62" stroke-width="1"/>
<path d="M966.6 228.5L970.9 231.3L975.2 234.1M927.7 234.1L930.7 234.4L933.6 234.6" stroke="url(#ribbon-edge)" stroke-opacity="0.62" stroke-width="1.5"/>
<path d="M875.4 121.3L877.0 125.1L878.7 128.9L841.0 192.2L838.1 189.5L835.4 186.8Z" fill="#0d2242" stroke="#0d2242" stroke-width=".55"/>
<path d="M873.7 124.0L877.1 131.5M872.0 126.7L875.5 134.1M870.3 129.5L873.9 136.8M868.6 132.3L872.3 139.4M866.8 135.0L870.7 142.1M865.1 137.9L869.0 144.9M863.3 140.7L867.4 147.6M861.6 143.6L865.7 150.4M859.8 146.5L864.0 153.2M858.0 149.4L862.3 156.0M856.2 152.4L860.6 158.9M854.3 155.4L858.9 161.8M852.5 158.4L857.1 164.7M850.6 161.5L855.4 167.7M848.8 164.5L853.6 170.6M846.9 167.6L851.9 173.6M845.0 170.8L850.1 176.7M843.1 173.9L848.3 179.7M841.2 177.1L846.5 182.8M839.3 180.3L844.7 185.9M837.3 183.5L842.8 189.1" stroke="url(#ribbon-thread)" stroke-opacity="0.57" stroke-width="1"/>
<path d="M875.4 121.3L877.0 125.1L878.7 128.9M835.4 186.8L838.1 189.5L841.0 192.2" stroke="url(#ribbon-edge)" stroke-opacity="0.57" stroke-width="1.5"/>
<path d="M975.2 234.1L979.6 236.8L984.0 239.4L939.3 234.7L936.5 234.7L933.6 234.6Z" fill="#0e2647" stroke="#0e2647" stroke-width=".55"/>
<path d="M973.6 234.2L982.2 239.3M971.9 234.3L980.4 239.2M970.2 234.3L978.6 239.0M968.5 234.4L976.7 238.9M966.7 234.5L974.8 238.7M964.9 234.5L972.9 238.5M963.1 234.6L971.0 238.3M961.3 234.6L969.1 238.2M959.5 234.6L967.1 238.0M957.6 234.7L965.1 237.8M955.8 234.7L963.1 237.5M953.9 234.7L961.0 237.3M951.9 234.7L959.0 237.1M950.0 234.7L956.9 236.9M948.0 234.7L954.8 236.6M946.0 234.7L952.6 236.4M944.0 234.7L950.5 236.1M942.0 234.7L948.3 235.8M939.9 234.7L946.1 235.6M937.8 234.6L943.9 235.3M935.7 234.6L941.6 235.0" stroke="url(#ribbon-thread)" stroke-opacity="0.61" stroke-width="1"/>
<path d="M975.2 234.1L979.6 236.8L984.0 239.4M933.6 234.6L936.5 234.7L939.3 234.7" stroke="url(#ribbon-edge)" stroke-opacity="0.61" stroke-width="1.5"/>
<path d="M872.6 113.8L873.9 117.6L875.4 121.3L835.4 186.8L832.6 184.0L829.9 181.1Z" fill="#0d2140" stroke="#0d2140" stroke-width=".55"/>
<path d="M870.8 116.6L873.7 124.0M869.0 119.4L872.0 126.7M867.1 122.2L870.3 129.5M865.3 125.1L868.6 132.3M863.5 128.0L866.8 135.0M861.6 130.9L865.1 137.9M859.7 133.8L863.3 140.7M857.8 136.8L861.6 143.6M855.9 139.8L859.8 146.5M854.0 142.8L858.0 149.4M852.1 145.8L856.2 152.4M850.1 148.9L854.3 155.4M848.2 152.0L852.5 158.4M846.2 155.1L850.6 161.5M844.2 158.3L848.8 164.5M842.2 161.4L846.9 167.6M840.2 164.7L845.0 170.8M838.2 167.9L843.1 173.9M836.1 171.2L841.2 177.1M834.1 174.5L839.3 180.3M832.0 177.8L837.3 183.5" stroke="url(#ribbon-thread)" stroke-opacity="0.55" stroke-width="1"/>
<path d="M872.6 113.8L873.9 117.6L875.4 121.3M829.9 181.1L832.6 184.0L835.4 186.8" stroke="url(#ribbon-edge)" stroke-opacity="0.55" stroke-width="1.5"/>
<path d="M984.0 239.4L988.4 242.0L992.9 244.4L944.9 234.5L942.2 234.6L939.3 234.7Z" fill="#0e2546" stroke="#0e2546" stroke-width=".55"/>
<path d="M982.2 239.3L991.0 244.1M980.4 239.2L989.0 243.7M978.6 239.0L987.1 243.3M976.7 238.9L985.1 243.0M974.8 238.7L983.0 242.6M972.9 238.5L981.0 242.2M971.0 238.3L978.9 241.8M969.1 238.2L976.8 241.4M967.1 238.0L974.7 240.9M965.1 237.8L972.6 240.5M963.1 237.5L970.4 240.0M961.0 237.3L968.2 239.6M959.0 237.1L966.0 239.1M956.9 236.9L963.8 238.6M954.8 236.6L961.5 238.2M952.6 236.4L959.2 237.7M950.5 236.1L956.9 237.1M948.3 235.8L954.5 236.6M946.1 235.6L952.2 236.1M943.9 235.3L949.8 235.6M941.6 235.0L947.4 235.0" stroke="url(#ribbon-thread)" stroke-opacity="0.60" stroke-width="1"/>
<path d="M984.0 239.4L988.4 242.0L992.9 244.4M939.3 234.7L942.2 234.6L944.9 234.5" stroke="url(#ribbon-edge)" stroke-opacity="0.60" stroke-width="1.5"/>
<path d="M870.3 106.5L871.4 110.1L872.6 113.8L829.9 181.1L827.3 178.2L824.8 175.2Z" fill="#0c203d" stroke="#0c203d" stroke-width=".55"/>
<path d="M868.3 109.3L870.8 116.6M866.4 112.2L869.0 119.4M864.5 115.1L867.1 122.2M862.5 118.0L865.3 125.1M860.5 120.9L863.5 128.0M858.5 123.9L861.6 130.9M856.5 126.9L859.7 133.8M854.5 129.9L857.8 136.8M852.5 133.0L855.9 139.8M850.4 136.1L854.0 142.8M848.4 139.2L852.1 145.8M846.3 142.3L850.1 148.9M844.2 145.5L848.2 152.0M842.1 148.7L846.2 155.1M840.0 151.9L844.2 158.3M837.8 155.1L842.2 161.4M835.7 158.4L840.2 164.7M833.5 161.7L838.2 167.9M831.4 165.0L836.1 171.2M829.2 168.4L834.1 174.5M827.0 171.8L832.0 177.8" stroke="url(#ribbon-thread)" stroke-opacity="0.54" stroke-width="1"/>
<path d="M870.3 106.5L871.4 110.1L872.6 113.8M824.8 175.2L827.3 178.2L829.9 181.1" stroke="url(#ribbon-edge)" stroke-opacity="0.54" stroke-width="1.5"/>
<path d="M992.9 244.4L997.4 246.7L1001.9 249.0L950.4 233.9L947.7 234.2L944.9 234.5Z" fill="#0e2444" stroke="#0e2444" stroke-width=".55"/>
<path d="M991.0 244.1L999.9 248.4M989.0 243.7L997.8 247.8M987.1 243.3L995.6 247.3M985.1 243.0L993.5 246.7M983.0 242.6L991.3 246.1M981.0 242.2L989.1 245.4M978.9 241.8L986.9 244.8M976.8 241.4L984.6 244.2M974.7 240.9L982.3 243.5M972.6 240.5L980.0 242.8M970.4 240.0L977.7 242.2M968.2 239.6L975.4 241.5M966.0 239.1L973.0 240.8M963.8 238.6L970.6 240.1M961.5 238.2L968.1 239.3M959.2 237.7L965.7 238.6M956.9 237.1L963.2 237.8M954.5 236.6L960.7 237.1M952.2 236.1L958.1 236.3M949.8 235.6L955.6 235.5M947.4 235.0L953.0 234.7" stroke="url(#ribbon-thread)" stroke-opacity="0.59" stroke-width="1"/>
<path d="M992.9 244.4L997.4 246.7L1001.9 249.0M944.9 234.5L947.7 234.2L950.4 233.9" stroke="url(#ribbon-edge)" stroke-opacity="0.59" stroke-width="1.5"/>
<path d="M868.4 99.2L869.3 102.8L870.3 106.5L824.8 175.2L822.3 172.1L819.9 169.0Z" fill="#0c1f3b" stroke="#0c1f3b" stroke-width=".55"/>
<path d="M866.4 102.1L868.3 109.3M864.3 105.0L866.4 112.2M862.2 108.0L864.5 115.1M860.1 111.0L862.5 118.0M858.0 114.0L860.5 120.9M855.9 117.0L858.5 123.9M853.8 120.0L856.5 126.9M851.6 123.1L854.5 129.9M849.4 126.2L852.5 133.0M847.2 129.3L850.4 136.1M845.0 132.5L848.4 139.2M842.8 135.7L846.3 142.3M840.6 138.9L844.2 145.5M838.4 142.1L842.1 148.7M836.1 145.4L840.0 151.9M833.8 148.7L837.8 155.1M831.5 152.0L835.7 158.4M829.2 155.3L833.5 161.7M826.9 158.7L831.4 165.0M824.6 162.1L829.2 168.4M822.2 165.5L827.0 171.8" stroke="url(#ribbon-thread)" stroke-opacity="0.52" stroke-width="1"/>
<path d="M868.4 99.2L869.3 102.8L870.3 106.5M819.9 169.0L822.3 172.1L824.8 175.2" stroke="url(#ribbon-edge)" stroke-opacity="0.52" stroke-width="1.5"/>
<path d="M1001.9 249.0L1006.5 251.1L1011.1 253.1L955.6 233.0L953.0 233.5L950.4 233.9Z" fill="#0e2343" stroke="#0e2343" stroke-width=".55"/>
<path d="M999.9 248.4L1008.8 252.3M997.8 247.8L1006.6 251.5M995.6 247.3L1004.3 250.7M993.5 246.7L1001.9 249.9M991.3 246.1L999.6 249.1M989.1 245.4L997.2 248.3M986.9 244.8L994.8 247.4M984.6 244.2L992.4 246.6M982.3 243.5L989.9 245.7M980.0 242.8L987.5 244.8M977.7 242.2L985.0 243.9M975.4 241.5L982.4 243.0M973.0 240.8L979.9 242.0M970.6 240.1L977.3 241.1M968.1 239.3L974.7 240.1M965.7 238.6L972.0 239.2M963.2 237.8L969.4 238.2M960.7 237.1L966.7 237.2M958.1 236.3L964.0 236.2M955.6 235.5L961.2 235.1M953.0 234.7L958.4 234.1" stroke="url(#ribbon-thread)" stroke-opacity="0.58" stroke-width="1"/>
<path d="M1001.9 249.0L1006.5 251.1L1011.1 253.1M950.4 233.9L953.0 233.5L955.6 233.0" stroke="url(#ribbon-edge)" stroke-opacity="0.58" stroke-width="1.5"/>
<path d="M867.1 92.2L867.7 95.7L868.4 99.2L819.9 169.0L817.5 165.8L815.3 162.6Z" fill="#0c1d39" stroke="#0c1d39" stroke-width=".55"/>
<path d="M864.9 95.1L866.4 102.1M862.7 98.1L864.3 105.0M860.5 101.0L862.2 108.0M858.3 104.0L860.1 111.0M856.0 107.1L858.0 114.0M853.7 110.1L855.9 117.0M851.5 113.2L853.8 120.0M849.1 116.3L851.6 123.1M846.8 119.5L849.4 126.2M844.5 122.6L847.2 129.3M842.2 125.8L845.0 132.5M839.8 129.0L842.8 135.7M837.4 132.2L840.6 138.9M835.0 135.5L838.4 142.1M832.6 138.8L836.1 145.4M830.2 142.1L833.8 148.7M827.7 145.5L831.5 152.0M825.3 148.8L829.2 155.3M822.8 152.2L826.9 158.7M820.3 155.6L824.6 162.1M817.8 159.1L822.2 165.5" stroke="url(#ribbon-thread)" stroke-opacity="0.50" stroke-width="1"/>
<path d="M867.1 92.2L867.7 95.7L868.4 99.2M815.3 162.6L817.5 165.8L819.9 169.0" stroke="url(#ribbon-edge)" stroke-opacity="0.50" stroke-width="1.5"/>
<path d="M1011.1 253.1L1015.7 255.0L1020.2 256.8L960.7 231.9L958.2 232.5L955.6 233.0Z" fill="#0d2241" stroke="#0d2241" stroke-width=".55"/>
<path d="M1008.8 252.3L1017.8 255.8M1006.6 251.5L1015.4 254.8M1004.3 250.7L1012.9 253.8M1001.9 249.9L1010.4 252.8M999.6 249.1L1007.9 251.7M997.2 248.3L1005.3 250.7M994.8 247.4L1002.7 249.6M992.4 246.6L1000.1 248.5M989.9 245.7L997.5 247.4M987.5 244.8L994.8 246.3M985.0 243.9L992.1 245.2M982.4 243.0L989.4 244.1M979.9 242.0L986.7 242.9M977.3 241.1L983.9 241.7M974.7 240.1L981.1 240.6M972.0 239.2L978.3 239.4M969.4 238.2L975.4 238.2M966.7 237.2L972.5 236.9M964.0 236.2L969.6 235.7M961.2 235.1L966.7 234.4M958.4 234.1L963.7 233.2" stroke="url(#ribbon-thread)" stroke-opacity="0.56" stroke-width="1"/>
<path d="M1011.1 253.1L1015.7 255.0L1020.2 256.8M955.6 233.0L958.2 232.5L960.7 231.9" stroke="url(#ribbon-edge)" stroke-opacity="0.56" stroke-width="1.5"/>
<path d="M866.3 85.4L866.7 88.8L867.1 92.2L815.3 162.6L813.2 159.3L811.1 155.9Z" fill="#0b1c36" stroke="#0b1c36" stroke-width=".55"/>
<path d="M864.0 88.3L864.9 95.1M861.6 91.3L862.7 98.1M859.3 94.3L860.5 101.0M856.9 97.3L858.3 104.0M854.5 100.3L856.0 107.1M852.0 103.4L853.7 110.1M849.6 106.5L851.5 113.2M847.2 109.6L849.1 116.3M844.7 112.8L846.8 119.5M842.2 115.9L844.5 122.6M839.7 119.1L842.2 125.8M837.2 122.3L839.8 129.0M834.6 125.6L837.4 132.2M832.1 128.9L835.0 135.5M829.5 132.2L832.6 138.8M826.9 135.5L830.2 142.1M824.3 138.8L827.7 145.5M821.7 142.2L825.3 148.8M819.1 145.6L822.8 152.2M816.4 149.0L820.3 155.6M813.8 152.5L817.8 159.1" stroke="url(#ribbon-thread)" stroke-opacity="0.48" stroke-width="1"/>
<path d="M866.3 85.4L866.7 88.8L867.1 92.2M811.1 155.9L813.2 159.3L815.3 162.6" stroke="url(#ribbon-edge)" stroke-opacity="0.48" stroke-width="1.5"/>
<path d="M1020.2 256.8L1024.8 258.4L1029.4 260.0L965.7 230.4L963.2 231.2L960.7 231.9Z" fill="#0d213f" stroke="#0d213f" stroke-width=".55"/>
<path d="M1017.8 255.8L1026.8 258.8M1015.4 254.8L1024.2 257.6M1012.9 253.8L1021.5 256.4M1010.4 252.8L1018.8 255.1M1007.9 251.7L1016.1 253.9M1005.3 250.7L1013.3 252.6M1002.7 249.6L1010.5 251.3M1000.1 248.5L1007.7 250.1M997.5 247.4L1004.9 248.7M994.8 246.3L1002.0 247.4M992.1 245.2L999.2 246.1M989.4 244.1L996.2 244.7M986.7 242.9L993.3 243.4M983.9 241.7L990.3 242.0M981.1 240.6L987.3 240.6M978.3 239.4L984.3 239.2M975.4 238.2L981.3 237.8M972.5 236.9L978.2 236.3M969.6 235.7L975.1 234.9M966.7 234.4L972.0 233.4M963.7 233.2L968.8 231.9" stroke="url(#ribbon-thread)" stroke-opacity="0.55" stroke-width="1"/>
<path d="M1020.2 256.8L1024.8 258.4L1029.4 260.0M960.7 231.9L963.2 231.2L965.7 230.4" stroke="url(#ribbon-edge)" stroke-opacity="0.55" stroke-width="1.5"/>
<path d="M866.1 78.8L866.2 82.1L866.3 85.4L811.1 155.9L809.1 152.6L807.3 149.1Z" fill="#0b1d38" stroke="#0b1d38" stroke-width=".55"/>
<path d="M863.6 81.8L864.0 88.3M861.1 84.7L861.6 91.3M858.5 87.7L859.3 94.3M856.0 90.7L856.9 97.3M853.4 93.8L854.5 100.3M850.8 96.8L852.0 103.4M848.3 99.9L849.6 106.5M845.6 103.0L847.2 109.6M843.0 106.2L844.7 112.8M840.4 109.3L842.2 115.9M837.7 112.5L839.7 119.1M835.0 115.7L837.2 122.3M832.3 118.9L834.6 125.6M829.6 122.2L832.1 128.9M826.9 125.5L829.5 132.2M824.1 128.8L826.9 135.5M821.4 132.1L824.3 138.8M818.6 135.5L821.7 142.2M815.8 138.9L819.1 145.6M813.0 142.3L816.4 149.0M810.1 145.7L813.8 152.5" stroke="url(#ribbon-thread)" stroke-opacity="0.49" stroke-width="1"/>
<path d="M866.1 78.8L866.2 82.1L866.3 85.4M807.3 149.1L809.1 152.6L811.1 155.9" stroke="url(#ribbon-edge)" stroke-opacity="0.49" stroke-width="1.5"/>
<path d="M1029.4 260.0L1034.0 261.3L1038.6 262.6L970.4 228.6L968.0 229.6L965.7 230.4Z" fill="#0c203d" stroke="#0c203d" stroke-width=".55"/>
<path d="M1026.8 258.8L1035.7 261.2M1024.2 257.6L1032.9 259.8M1021.5 256.4L1030.0 258.4M1018.8 255.1L1027.1 257.0M1016.1 253.9L1024.2 255.5M1013.3 252.6L1021.2 254.1M1010.5 251.3L1018.2 252.6M1007.7 250.1L1015.2 251.1M1004.9 248.7L1012.2 249.6M1002.0 247.4L1009.1 248.1M999.2 246.1L1006.1 246.5M996.2 244.7L1002.9 245.0M993.3 243.4L999.8 243.4M990.3 242.0L996.6 241.8M987.3 240.6L993.4 240.2M984.3 239.2L990.2 238.6M981.3 237.8L987.0 237.0M978.2 236.3L983.7 235.4M975.1 234.9L980.4 233.7M972.0 233.4L977.1 232.0M968.8 231.9L973.7 230.3" stroke="url(#ribbon-thread)" stroke-opacity="0.53" stroke-width="1"/>
<path d="M1029.4 260.0L1034.0 261.3L1038.6 262.6M965.7 230.4L968.0 229.6L970.4 228.6" stroke="url(#ribbon-edge)" stroke-opacity="0.53" stroke-width="1.5"/>
<path d="M866.3 72.5L866.1 75.6L866.1 78.8L807.3 149.1L805.5 145.7L803.9 142.2Z" fill="#0c1e3a" stroke="#0c1e3a" stroke-width=".55"/>
<path d="M863.7 75.5L863.6 81.8M861.0 78.4L861.1 84.7M858.3 81.4L858.5 87.7M855.6 84.4L856.0 90.7M852.9 87.4L853.4 93.8M850.1 90.4L850.8 96.8M847.4 93.5L848.3 99.9M844.6 96.6L845.6 103.0M841.8 99.7L843.0 106.2M839.0 102.8L840.4 109.3M836.2 105.9L837.7 112.5M833.3 109.1L835.0 115.7M830.5 112.3L832.3 118.9M827.6 115.6L829.6 122.2M824.7 118.8L826.9 125.5M821.8 122.1L824.1 128.8M818.8 125.4L821.4 132.1M815.9 128.7L818.6 135.5M812.9 132.0L815.8 138.9M809.9 135.4L813.0 142.3M806.9 138.8L810.1 145.7" stroke="url(#ribbon-thread)" stroke-opacity="0.51" stroke-width="1"/>
<path d="M866.3 72.5L866.1 75.6L866.1 78.8M803.9 142.2L805.5 145.7L807.3 149.1" stroke="url(#ribbon-edge)" stroke-opacity="0.51" stroke-width="1.5"/>
<path d="M1038.6 262.6L1043.1 263.7L1047.6 264.7L974.9 226.6L972.6 227.7L970.4 228.6Z" fill="#0c1f3b" stroke="#0c1f3b" stroke-width=".55"/>
<path d="M1035.7 261.2L1044.6 263.1M1032.9 259.8L1041.5 261.5M1030.0 258.4L1038.4 259.9M1027.1 257.0L1035.3 258.3M1024.2 255.5L1032.1 256.7M1021.2 254.1L1029.0 255.0M1018.2 252.6L1025.8 253.3M1015.2 251.1L1022.6 251.7M1012.2 249.6L1019.3 250.0M1009.1 248.1L1016.1 248.3M1006.1 246.5L1012.8 246.5M1002.9 245.0L1009.5 244.8M999.8 243.4L1006.1 243.0M996.6 241.8L1002.7 241.3M993.4 240.2L999.3 239.5M990.2 238.6L995.9 237.7M987.0 237.0L992.5 235.9M983.7 235.4L989.0 234.1M980.4 233.7L985.5 232.2M977.1 232.0L982.0 230.4M973.7 230.3L978.4 228.5" stroke="url(#ribbon-thread)" stroke-opacity="0.52" stroke-width="1"/>
<path d="M1038.6 262.6L1043.1 263.7L1047.6 264.7M970.4 228.6L972.6 227.7L974.9 226.6" stroke="url(#ribbon-edge)" stroke-opacity="0.52" stroke-width="1.5"/>
<path d="M867.1 66.6L866.7 69.5L866.3 72.5L803.9 142.2L802.4 138.7L801.0 135.1Z" fill="#0c1f3d" stroke="#0c1f3d" stroke-width=".55"/>
<path d="M864.3 69.5L863.7 75.5M861.5 72.4L861.0 78.4M858.6 75.3L858.3 81.4M855.7 78.2L855.6 84.4M852.9 81.2L852.9 87.4M849.9 84.2L850.1 90.4M847.0 87.2L847.4 93.5M844.1 90.3L844.6 96.6M841.1 93.3L841.8 99.7M838.1 96.4L839.0 102.8M835.1 99.5L836.2 105.9M832.1 102.6L833.3 109.1M829.1 105.8L830.5 112.3M826.1 108.9L827.6 115.6M823.0 112.1L824.7 118.8M819.9 115.4L821.8 122.1M816.8 118.6L818.8 125.4M813.7 121.9L815.9 128.7M810.5 125.1L812.9 132.0M807.4 128.5L809.9 135.4M804.2 131.8L806.9 138.8" stroke="url(#ribbon-thread)" stroke-opacity="0.53" stroke-width="1"/>
<path d="M867.1 66.6L866.7 69.5L866.3 72.5M801.0 135.1L802.4 138.7L803.9 142.2" stroke="url(#ribbon-edge)" stroke-opacity="0.53" stroke-width="1.5"/>
<path d="M1047.6 264.7L1052.1 265.5L1056.5 266.2L979.2 224.3L977.1 225.5L974.9 226.6Z" fill="#0c1e39" stroke="#0c1e39" stroke-width=".55"/>
<path d="M1044.6 263.1L1053.2 264.4M1041.5 261.5L1049.9 262.6M1038.4 259.9L1046.6 260.8M1035.3 258.3L1043.3 259.1M1032.1 256.7L1039.9 257.2M1029.0 255.0L1036.5 255.4M1025.8 253.3L1033.1 253.6M1022.6 251.7L1029.7 251.7M1019.3 250.0L1026.2 249.9M1016.1 248.3L1022.8 248.0M1012.8 246.5L1019.3 246.1M1009.5 244.8L1015.7 244.2M1006.1 243.0L1012.2 242.2M1002.7 241.3L1008.6 240.3M999.3 239.5L1005.0 238.4M995.9 237.7L1001.4 236.4M992.5 235.9L997.8 234.4M989.0 234.1L994.1 232.4M985.5 232.2L990.4 230.4M982.0 230.4L986.7 228.4M978.4 228.5L982.9 226.3" stroke="url(#ribbon-thread)" stroke-opacity="0.51" stroke-width="1"/>
<path d="M1047.6 264.7L1052.1 265.5L1056.5 266.2M974.9 226.6L977.1 225.5L979.2 224.3" stroke="url(#ribbon-edge)" stroke-opacity="0.51" stroke-width="1.5"/>
<path d="M868.4 61.0L867.7 63.8L867.1 66.6L801.0 135.1L799.7 131.6L798.6 128.0Z" fill="#0d213f" stroke="#0d213f" stroke-width=".55"/>
<path d="M865.4 63.8L864.3 69.5M862.4 66.7L861.5 72.4M859.4 69.5L858.6 75.3M856.4 72.4L855.7 78.2M853.3 75.3L852.9 81.2M850.3 78.2L849.9 84.2M847.2 81.2L847.0 87.2M844.1 84.1L844.1 90.3M840.9 87.1L841.1 93.3M837.8 90.2L838.1 96.4M834.6 93.2L835.1 99.5M831.5 96.2L832.1 102.6M828.3 99.3L829.1 105.8M825.0 102.4L826.1 108.9M821.8 105.5L823.0 112.1M818.5 108.7L819.9 115.4M815.3 111.8L816.8 118.6M812.0 115.0L813.7 121.9M808.7 118.2L810.5 125.1M805.3 121.5L807.4 128.5M802.0 124.7L804.2 131.8" stroke="url(#ribbon-thread)" stroke-opacity="0.55" stroke-width="1"/>
<path d="M868.4 61.0L867.7 63.8L867.1 66.6M798.6 128.0L799.7 131.6L801.0 135.1" stroke="url(#ribbon-edge)" stroke-opacity="0.55" stroke-width="1.5"/>
<path d="M1056.5 266.2L1060.8 266.7L1065.1 267.0L983.3 221.7L981.2 223.0L979.2 224.3Z" fill="#0b1c37" stroke="#0b1c37" stroke-width=".55"/>
<path d="M1053.2 264.4L1061.6 265.1M1049.9 262.6L1058.1 263.1M1046.6 260.8L1054.6 261.2M1043.3 259.1L1051.0 259.2M1039.9 257.2L1047.4 257.3M1036.5 255.4L1043.8 255.3M1033.1 253.6L1040.2 253.3M1029.7 251.7L1036.6 251.3M1026.2 249.9L1032.9 249.2M1022.8 248.0L1029.2 247.2M1019.3 246.1L1025.5 245.1M1015.7 244.2L1021.8 243.1M1012.2 242.2L1018.0 241.0M1008.6 240.3L1014.3 238.9M1005.0 238.4L1010.5 236.8M1001.4 236.4L1006.6 234.7M997.8 234.4L1002.8 232.6M994.1 232.4L998.9 230.4M990.4 230.4L995.1 228.3M986.7 228.4L991.1 226.1M982.9 226.3L987.2 223.9" stroke="url(#ribbon-thread)" stroke-opacity="0.49" stroke-width="1"/>
<path d="M1056.5 266.2L1060.8 266.7L1065.1 267.0M979.2 224.3L981.2 223.0L983.3 221.7" stroke="url(#ribbon-edge)" stroke-opacity="0.49" stroke-width="1.5"/>
<path d="M870.2 55.8L869.2 58.4L868.4 61.0L798.6 128.0L797.6 124.4L796.8 120.8Z" fill="#0d2241" stroke="#0d2241" stroke-width=".55"/>
<path d="M867.0 58.5L865.4 63.8M863.9 61.3L862.4 66.7M860.7 64.1L859.4 69.5M857.5 66.9L856.4 72.4M854.3 69.7L853.3 75.3M851.1 72.5L850.3 78.2M847.8 75.4L847.2 81.2M844.6 78.3L844.1 84.1M841.3 81.2L840.9 87.1M838.0 84.1L837.8 90.2M834.7 87.0L834.6 93.2M831.3 90.0L831.5 96.2M828.0 93.0L828.3 99.3M824.6 96.0L825.0 102.4M821.2 99.0L821.8 105.5M817.7 102.1L818.5 108.7M814.3 105.1L815.3 111.8M810.8 108.2L812.0 115.0M807.4 111.3L808.7 118.2M803.9 114.5L805.3 121.5M800.3 117.6L802.0 124.7" stroke="url(#ribbon-thread)" stroke-opacity="0.57" stroke-width="1"/>
<path d="M870.2 55.8L869.2 58.4L868.4 61.0M796.8 120.8L797.6 124.4L798.6 128.0" stroke="url(#ribbon-edge)" stroke-opacity="0.57" stroke-width="1.5"/>
<path d="M1065.1 267.0L1069.3 267.2L1073.5 267.2L987.1 218.9L985.2 220.3L983.3 221.7Z" fill="#0b1c36" stroke="#0b1c36" stroke-width=".55"/>
<path d="M1061.6 265.1L1069.7 265.1M1058.1 263.1L1066.0 263.0M1054.6 261.2L1062.2 260.9M1051.0 259.2L1058.5 258.8M1047.4 257.3L1054.7 256.7M1043.8 255.3L1050.9 254.6M1040.2 253.3L1047.0 252.4M1036.6 251.3L1043.2 250.3M1032.9 249.2L1039.3 248.1M1029.2 247.2L1035.4 245.9M1025.5 245.1L1031.5 243.7M1021.8 243.1L1027.5 241.5M1018.0 241.0L1023.6 239.3M1014.3 238.9L1019.6 237.1M1010.5 236.8L1015.6 234.9M1006.6 234.7L1011.6 232.6M1002.8 232.6L1007.6 230.3M998.9 230.4L1003.5 228.1M995.1 228.3L999.5 225.8M991.1 226.1L995.4 223.5M987.2 223.9L991.3 221.2" stroke="url(#ribbon-thread)" stroke-opacity="0.48" stroke-width="1"/>
<path d="M1065.1 267.0L1069.3 267.2L1073.5 267.2M983.3 221.7L985.2 220.3L987.1 218.9" stroke="url(#ribbon-edge)" stroke-opacity="0.48" stroke-width="1.5"/>
<path d="M872.4 51.0L871.2 53.4L870.2 55.8L796.8 120.8L796.1 117.2L795.6 113.6Z" fill="#0e2444" stroke="#0e2444" stroke-width=".55"/>
<path d="M869.2 53.7L867.0 58.5M865.9 56.3L863.9 61.3M862.5 59.0L860.7 64.1M859.2 61.7L857.5 66.9M855.8 64.4L854.3 69.7M852.4 67.1L851.1 72.5M849.0 69.9L847.8 75.4M845.6 72.7L844.6 78.3M842.2 75.5L841.3 81.2M838.7 78.3L838.0 84.1M835.2 81.1L834.7 87.0M831.7 84.0L831.3 90.0M828.2 86.8L828.0 93.0M824.7 89.7L824.6 96.0M821.1 92.6L821.2 99.0M817.5 95.6L817.7 102.1M813.9 98.5L814.3 105.1M810.3 101.5L810.8 108.2M806.6 104.5L807.4 111.3M803.0 107.5L803.9 114.5M799.3 110.5L800.3 117.6" stroke="url(#ribbon-thread)" stroke-opacity="0.58" stroke-width="1"/>
<path d="M872.4 51.0L871.2 53.4L870.2 55.8M795.6 113.6L796.1 117.2L796.8 120.8" stroke="url(#ribbon-edge)" stroke-opacity="0.58" stroke-width="1.5"/>
<path d="M1073.5 267.2L1077.5 267.0L1081.4 266.7L990.8 215.8L989.0 217.4L987.1 218.9Z" fill="#0b1d38" stroke="#0b1d38" stroke-width=".55"/>
<path d="M1069.7 265.1L1077.5 264.4M1066.0 263.0L1073.5 262.2M1062.2 260.9L1069.6 260.0M1058.5 258.8L1065.6 257.8M1054.7 256.7L1061.5 255.5M1050.9 254.6L1057.5 253.3M1047.0 252.4L1053.5 251.0M1043.2 250.3L1049.4 248.7M1039.3 248.1L1045.3 246.4M1035.4 245.9L1041.2 244.1M1031.5 243.7L1037.1 241.8M1027.5 241.5L1033.0 239.5M1023.6 239.3L1028.9 237.2M1019.6 237.1L1024.7 234.8M1015.6 234.9L1020.5 232.5M1011.6 232.6L1016.3 230.1M1007.6 230.3L1012.1 227.8M1003.5 228.1L1007.9 225.4M999.5 225.8L1003.6 223.0M995.4 223.5L999.4 220.6M991.3 221.2L995.1 218.2" stroke="url(#ribbon-thread)" stroke-opacity="0.50" stroke-width="1"/>
<path d="M1073.5 267.2L1077.5 267.0L1081.4 266.7M987.1 218.9L989.0 217.4L990.8 215.8" stroke="url(#ribbon-edge)" stroke-opacity="0.50" stroke-width="1.5"/>
<path d="M875.2 46.7L873.7 48.8L872.4 51.0L795.6 113.6L795.2 110.0L795.0 106.4Z" fill="#0e2546" stroke="#0e2546" stroke-width=".55"/>
<path d="M871.7 49.2L869.2 53.7M868.3 51.7L865.9 56.3M864.8 54.3L862.5 59.0M861.3 56.9L859.2 61.7M857.8 59.5L855.8 64.4M854.3 62.1L852.4 67.1M850.8 64.7L849.0 69.9M847.2 67.3L845.6 72.7M843.6 70.0L842.2 75.5M840.0 72.7L838.7 78.3M836.3 75.4L835.2 81.1M832.7 78.1L831.7 84.0M829.0 80.9L828.2 86.8M825.3 83.6L824.7 89.7M821.6 86.4L821.1 92.6M817.9 89.2L817.5 95.6M814.1 92.0L813.9 98.5M810.3 94.9L810.3 101.5M806.5 97.7L806.6 104.5M802.7 100.6L803.0 107.5M798.8 103.5L799.3 110.5" stroke="url(#ribbon-thread)" stroke-opacity="0.60" stroke-width="1"/>
<path d="M875.2 46.7L873.7 48.8L872.4 51.0M795.0 106.4L795.2 110.0L795.6 113.6" stroke="url(#ribbon-edge)" stroke-opacity="0.60" stroke-width="1.5"/>
<path d="M1081.4 266.7L1085.3 266.1L1089.0 265.4L994.2 212.5L992.5 214.2L990.8 215.8Z" fill="#0c1e3a" stroke="#0c1e3a" stroke-width=".55"/>
<path d="M1077.5 264.4L1084.8 263.1M1073.5 262.2L1080.6 260.8M1069.6 260.0L1076.4 258.4M1065.6 257.8L1072.2 256.1M1061.5 255.5L1068.0 253.7M1057.5 253.3L1063.8 251.4M1053.5 251.0L1059.5 249.0M1049.4 248.7L1055.3 246.6M1045.3 246.4L1051.0 244.2M1041.2 244.1L1046.7 241.8M1037.1 241.8L1042.4 239.4M1033.0 239.5L1038.1 237.0M1028.9 237.2L1033.8 234.6M1024.7 234.8L1029.4 232.2M1020.5 232.5L1025.1 229.8M1016.3 230.1L1020.7 227.3M1012.1 227.8L1016.3 224.9M1007.9 225.4L1011.9 222.4M1003.6 223.0L1007.5 219.9M999.4 220.6L1003.1 217.5M995.1 218.2L998.6 215.0" stroke="url(#ribbon-thread)" stroke-opacity="0.51" stroke-width="1"/>
<path d="M1081.4 266.7L1085.3 266.1L1089.0 265.4M990.8 215.8L992.5 214.2L994.2 212.5" stroke="url(#ribbon-edge)" stroke-opacity="0.51" stroke-width="1.5"/>
<path d="M878.3 42.8L876.7 44.7L875.2 46.7L795.0 106.4L794.9 102.8L795.1 99.3Z" fill="#0f2648" stroke="#0f2648" stroke-width=".55"/>
<path d="M874.8 45.2L871.7 49.2M871.2 47.6L868.3 51.7M867.6 50.0L864.8 54.3M864.0 52.5L861.3 56.9M860.3 54.9L857.8 59.5M856.7 57.4L854.3 62.1M853.0 59.9L850.8 64.7M849.3 62.4L847.2 67.3M845.6 64.9L843.6 70.0M841.8 67.4L840.0 72.7M838.0 70.0L836.3 75.4M834.2 72.5L832.7 78.1M830.4 75.1L829.0 80.9M826.6 77.7L825.3 83.6M822.7 80.4L821.6 86.4M818.8 83.0L817.9 89.2M814.9 85.7L814.1 92.0M811.0 88.4L810.3 94.9M807.0 91.1L806.5 97.7M803.1 93.8L802.7 100.6M799.1 96.5L798.8 103.5" stroke="url(#ribbon-thread)" stroke-opacity="0.61" stroke-width="1"/>
<path d="M878.3 42.8L876.7 44.7L875.2 46.7M795.1 99.3L794.9 102.8L795.0 106.4" stroke="url(#ribbon-edge)" stroke-opacity="0.61" stroke-width="1.5"/>
<path d="M1089.0 265.4L1092.6 264.5L1096.0 263.5L997.4 209.0L995.8 210.8L994.2 212.5Z" fill="#0c1f3c" stroke="#0c1f3c" stroke-width=".55"/>
<path d="M1084.8 263.1L1091.6 261.0M1080.6 260.8L1087.3 258.6M1076.4 258.4L1082.9 256.2M1072.2 256.1L1078.4 253.8M1068.0 253.7L1074.0 251.3M1063.8 251.4L1069.6 248.9M1059.5 249.0L1065.2 246.4M1055.3 246.6L1060.7 244.0M1051.0 244.2L1056.3 241.5M1046.7 241.8L1051.8 239.0M1042.4 239.4L1047.3 236.6M1038.1 237.0L1042.8 234.1M1033.8 234.6L1038.3 231.6M1029.4 232.2L1033.8 229.1M1025.1 229.8L1029.3 226.6M1020.7 227.3L1024.8 224.1M1016.3 224.9L1020.2 221.6M1011.9 222.4L1015.7 219.1M1007.5 219.9L1011.1 216.6M1003.1 217.5L1006.5 214.0M998.6 215.0L1002.0 211.5" stroke="url(#ribbon-thread)" stroke-opacity="0.52" stroke-width="1"/>
<path d="M1089.0 265.4L1092.6 264.5L1096.0 263.5M994.2 212.5L995.8 210.8L997.4 209.0" stroke="url(#ribbon-edge)" stroke-opacity="0.52" stroke-width="1.5"/>
<path d="M881.9 39.5L880.1 41.1L878.3 42.8L795.1 99.3L795.4 95.8L795.9 92.3Z" fill="#0f274a" stroke="#0f274a" stroke-width=".55"/>
<path d="M878.2 41.7L874.8 45.2M874.6 43.9L871.2 47.6M870.8 46.2L867.6 50.0M867.1 48.5L864.0 52.5M863.3 50.7L860.3 54.9M859.6 53.0L856.7 57.4M855.7 55.4L853.0 59.9M851.9 57.7L849.3 62.4M848.1 60.1L845.6 64.9M844.2 62.5L841.8 67.4M840.3 64.8L838.0 70.0M836.4 67.3L834.2 72.5M832.4 69.7L830.4 75.1M828.4 72.1L826.6 77.7M824.5 74.6L822.7 80.4M820.4 77.1L818.8 83.0M816.4 79.6L814.9 85.7M812.3 82.1L811.0 88.4M808.3 84.6L807.0 91.1M804.1 87.2L803.1 93.8M800.0 89.7L799.1 96.5" stroke="url(#ribbon-thread)" stroke-opacity="0.63" stroke-width="1"/>
<path d="M881.9 39.5L880.1 41.1L878.3 42.8M795.9 92.3L795.4 95.8L795.1 99.3" stroke="url(#ribbon-edge)" stroke-opacity="0.63" stroke-width="1.5"/>
<path d="M1096.0 263.5L1099.3 262.2L1102.5 260.7L1000.3 205.2L998.9 207.1L997.4 209.0Z" fill="#0c203d" stroke="#0c203d" stroke-width=".55"/>
<path d="M1091.6 261.0L1097.9 258.3M1087.3 258.6L1093.3 255.8M1082.9 256.2L1088.7 253.3M1078.4 253.8L1084.1 250.8M1074.0 251.3L1079.5 248.3M1069.6 248.9L1074.9 245.8M1065.2 246.4L1070.3 243.3M1060.7 244.0L1065.7 240.8M1056.3 241.5L1061.1 238.2M1051.8 239.0L1056.4 235.7M1047.3 236.6L1051.8 233.2M1042.8 234.1L1047.1 230.7M1038.3 231.6L1042.5 228.1M1033.8 229.1L1037.8 225.6M1029.3 226.6L1033.2 223.1M1024.8 224.1L1028.5 220.5M1020.2 221.6L1023.8 218.0M1015.7 219.1L1019.1 215.5M1011.1 216.6L1014.4 212.9M1006.5 214.0L1009.7 210.3M1002.0 211.5L1005.0 207.8" stroke="url(#ribbon-thread)" stroke-opacity="0.53" stroke-width="1"/>
<path d="M1096.0 263.5L1099.3 262.2L1102.5 260.7M997.4 209.0L998.9 207.1L1000.3 205.2" stroke="url(#ribbon-edge)" stroke-opacity="0.53" stroke-width="1.5"/>
<path d="M885.9 36.6L883.9 38.0L881.9 39.5L795.9 92.3L796.5 88.9L797.4 85.5Z" fill="#0f284c" stroke="#0f284c" stroke-width=".55"/>
<path d="M882.1 38.6L878.2 41.7M878.3 40.7L874.6 43.9M874.5 42.8L870.8 46.2M870.7 44.9L867.1 48.5M866.8 47.0L863.3 50.7M862.9 49.1L859.6 53.0M859.0 51.3L855.7 55.4M855.1 53.5L851.9 57.7M851.1 55.6L848.1 60.1M847.1 57.8L844.2 62.5M843.1 60.1L840.3 64.8M839.1 62.3L836.4 67.3M835.0 64.5L832.4 69.7M830.9 66.8L828.4 72.1M826.8 69.1L824.5 74.6M822.7 71.4L820.4 77.1M818.5 73.7L816.4 79.6M814.4 76.0L812.3 82.1M810.2 78.4L808.3 84.6M805.9 80.7L804.1 87.2M801.7 83.1L800.0 89.7" stroke="url(#ribbon-thread)" stroke-opacity="0.64" stroke-width="1"/>
<path d="M885.9 36.6L883.9 38.0L881.9 39.5M797.4 85.5L796.5 88.9L795.9 92.3" stroke="url(#ribbon-edge)" stroke-opacity="0.64" stroke-width="1.5"/>
<path d="M1102.5 260.7L1105.5 259.1L1108.3 257.3L1003.0 201.3L1001.7 203.3L1000.3 205.2Z" fill="#0d213f" stroke="#0d213f" stroke-width=".55"/>
<path d="M1097.9 258.3L1103.5 254.7M1093.3 255.8L1098.7 252.2M1088.7 253.3L1094.0 249.7M1084.1 250.8L1089.2 247.1M1079.5 248.3L1084.4 244.6M1074.9 245.8L1079.7 242.1M1070.3 243.3L1074.9 239.5M1065.7 240.8L1070.1 237.0M1061.1 238.2L1065.3 234.4M1056.4 235.7L1060.6 231.9M1051.8 233.2L1055.8 229.4M1047.1 230.7L1051.0 226.8M1042.5 228.1L1046.2 224.3M1037.8 225.6L1041.4 221.7M1033.2 223.1L1036.6 219.2M1028.5 220.5L1031.8 216.6M1023.8 218.0L1027.0 214.1M1019.1 215.5L1022.2 211.5M1014.4 212.9L1017.4 209.0M1009.7 210.3L1012.6 206.4M1005.0 207.8L1007.8 203.8" stroke="url(#ribbon-thread)" stroke-opacity="0.55" stroke-width="1"/>
<path d="M1102.5 260.7L1105.5 259.1L1108.3 257.3M1000.3 205.2L1001.7 203.3L1003.0 201.3" stroke="url(#ribbon-edge)" stroke-opacity="0.55" stroke-width="1.5"/>
<path d="M890.2 34.2L888.0 35.3L885.9 36.6L797.4 85.5L798.5 82.2L799.7 78.9Z" fill="#10294d" stroke="#10294d" stroke-width=".55"/>
<path d="M886.4 36.1L882.1 38.6M882.5 38.0L878.3 40.7M878.6 39.9L874.5 42.8M874.7 41.8L870.7 44.9M870.7 43.7L866.8 47.0M866.7 45.7L862.9 49.1M862.7 47.7L859.0 51.3M858.7 49.6L855.1 53.5M854.7 51.6L851.1 55.6M850.6 53.6L847.1 57.8M846.5 55.7L843.1 60.1M842.4 57.7L839.1 62.3M838.2 59.8L835.0 64.5M834.0 61.8L830.9 66.8M829.8 63.9L826.8 69.1M825.6 66.0L822.7 71.4M821.4 68.1L818.5 73.7M817.1 70.3L814.4 76.0M812.8 72.4L810.2 78.4M808.5 74.6L805.9 80.7M804.1 76.7L801.7 83.1" stroke="url(#ribbon-thread)" stroke-opacity="0.65" stroke-width="1"/>
<path d="M890.2 34.2L888.0 35.3L885.9 36.6M799.7 78.9L798.5 82.2L797.4 85.5" stroke="url(#ribbon-edge)" stroke-opacity="0.65" stroke-width="1.5"/>
<path d="M1108.3 257.3L1110.9 255.3L1113.3 253.1L1005.5 197.2L1004.3 199.2L1003.0 201.3Z" fill="#0d2140" stroke="#0d2140" stroke-width=".55"/>
<path d="M1103.5 254.7L1108.4 250.5M1098.7 252.2L1103.5 248.0M1094.0 249.7L1098.6 245.4M1089.2 247.1L1093.7 242.9M1084.4 244.6L1088.7 240.3M1079.7 242.1L1083.8 237.8M1074.9 239.5L1078.9 235.2M1070.1 237.0L1074.0 232.7M1065.3 234.4L1069.1 230.1M1060.6 231.9L1064.2 227.6M1055.8 229.4L1059.3 225.0M1051.0 226.8L1054.4 222.5M1046.2 224.3L1049.5 220.0M1041.4 221.7L1044.6 217.4M1036.6 219.2L1039.7 214.9M1031.8 216.6L1034.8 212.4M1027.0 214.1L1029.9 209.8M1022.2 211.5L1025.0 207.3M1017.4 209.0L1020.1 204.7M1012.6 206.4L1015.3 202.2M1007.8 203.8L1010.4 199.7" stroke="url(#ribbon-thread)" stroke-opacity="0.55" stroke-width="1"/>
<path d="M1108.3 257.3L1110.9 255.3L1113.3 253.1M1003.0 201.3L1004.3 199.2L1005.5 197.2" stroke="url(#ribbon-edge)" stroke-opacity="0.55" stroke-width="1.5"/>
<path d="M894.9 32.4L892.5 33.3L890.2 34.2L799.7 78.9L801.2 75.8L802.9 72.6Z" fill="#102a4f" stroke="#102a4f" stroke-width=".55"/>
<path d="M891.0 34.1L886.4 36.1M887.0 35.8L882.5 38.0M883.1 37.5L878.6 39.9M879.1 39.2L874.7 41.8M875.1 40.9L870.7 43.7M871.0 42.7L866.7 45.7M867.0 44.5L862.7 47.7M862.9 46.2L858.7 49.6M858.7 48.0L854.7 51.6M854.6 49.8L850.6 53.6M850.4 51.7L846.5 55.7M846.2 53.5L842.4 57.7M842.0 55.3L838.2 59.8M837.8 57.2L834.0 61.8M833.5 59.1L829.8 63.9M829.2 61.0L825.6 66.0M824.9 62.9L821.4 68.1M820.5 64.8L817.1 70.3M816.2 66.7L812.8 72.4M811.8 68.7L808.5 74.6M807.3 70.7L804.1 76.7" stroke="url(#ribbon-thread)" stroke-opacity="0.66" stroke-width="1"/>
<path d="M894.9 32.4L892.5 33.3L890.2 34.2M802.9 72.6L801.2 75.8L799.7 78.9" stroke="url(#ribbon-edge)" stroke-opacity="0.66" stroke-width="1.5"/>
<path d="M1113.3 253.1L1115.6 250.7L1117.6 248.1L1007.7 192.8L1006.6 195.0L1005.5 197.2Z" fill="#0d2241" stroke="#0d2241" stroke-width=".55"/>
<path d="M1108.4 250.5L1112.5 245.5M1103.5 248.0L1107.5 243.0M1098.6 245.4L1102.4 240.5M1093.7 242.9L1097.4 237.9M1088.7 240.3L1092.4 235.4M1083.8 237.8L1087.3 232.9M1078.9 235.2L1082.3 230.4M1074.0 232.7L1077.3 227.8M1069.1 230.1L1072.3 225.3M1064.2 227.6L1067.3 222.8M1059.3 225.0L1062.3 220.3M1054.4 222.5L1057.3 217.8M1049.5 220.0L1052.3 215.3M1044.6 217.4L1047.3 212.8M1039.7 214.9L1042.4 210.3M1034.8 212.4L1037.4 207.8M1029.9 209.8L1032.4 205.3M1025.0 207.3L1027.5 202.8M1020.1 204.7L1022.5 200.3M1015.3 202.2L1017.6 197.8M1010.4 199.7L1012.6 195.3" stroke="url(#ribbon-thread)" stroke-opacity="0.56" stroke-width="1"/>
<path d="M1113.3 253.1L1115.6 250.7L1117.6 248.1M1005.5 197.2L1006.6 195.0L1007.7 192.8" stroke="url(#ribbon-edge)" stroke-opacity="0.56" stroke-width="1.5"/>
<path d="M899.8 31.1L897.3 31.7L894.9 32.4L802.9 72.6L804.8 69.6L806.8 66.7Z" fill="#102a50" stroke="#102a50" stroke-width=".55"/>
<path d="M895.9 32.6L891.0 34.1M891.9 34.1L887.0 35.8M887.9 35.6L883.1 37.5M883.9 37.1L879.1 39.2M879.8 38.6L875.1 40.9M875.7 40.2L871.0 42.7M871.6 41.7L867.0 44.5M867.5 43.3L862.9 46.2M863.3 44.9L858.7 48.0M859.2 46.5L854.6 49.8M854.9 48.1L850.4 51.7M850.7 49.7L846.2 53.5M846.4 51.4L842.0 55.3M842.1 53.0L837.8 57.2M837.8 54.7L833.5 59.1M833.5 56.3L829.2 61.0M829.1 58.0L824.9 62.9M824.7 59.7L820.5 64.8M820.3 61.5L816.2 66.7M815.8 63.2L811.8 68.7M811.3 64.9L807.3 70.7" stroke="url(#ribbon-thread)" stroke-opacity="0.67" stroke-width="1"/>
<path d="M899.8 31.1L897.3 31.7L894.9 32.4M806.8 66.7L804.8 69.6L802.9 72.6" stroke="url(#ribbon-edge)" stroke-opacity="0.67" stroke-width="1.5"/>
<path d="M1117.6 248.1L1119.4 245.3L1121.0 242.4L1009.7 188.3L1008.7 190.6L1007.7 192.8Z" fill="#0d2342" stroke="#0d2342" stroke-width=".55"/>
<path d="M1112.5 245.5L1115.8 239.9M1107.5 243.0L1110.7 237.4M1102.4 240.5L1105.5 234.9M1097.4 237.9L1100.4 232.4M1092.4 235.4L1095.3 229.9M1087.3 232.9L1090.2 227.4M1082.3 230.4L1085.0 224.9M1077.3 227.8L1080.0 222.5M1072.3 225.3L1074.9 220.0M1067.3 222.8L1069.8 217.5M1062.3 220.3L1064.7 215.1M1057.3 217.8L1059.7 212.6M1052.3 215.3L1054.6 210.2M1047.3 212.8L1049.6 207.7M1042.4 210.3L1044.6 205.3M1037.4 207.8L1039.5 202.8M1032.4 205.3L1034.5 200.4M1027.5 202.8L1029.5 198.0M1022.5 200.3L1024.6 195.6M1017.6 197.8L1019.6 193.1M1012.6 195.3L1014.6 190.7" stroke="url(#ribbon-thread)" stroke-opacity="0.57" stroke-width="1"/>
<path d="M1117.6 248.1L1119.4 245.3L1121.0 242.4M1007.7 192.8L1008.7 190.6L1009.7 188.3" stroke="url(#ribbon-edge)" stroke-opacity="0.57" stroke-width="1.5"/>
<path d="M905.0 30.3L902.4 30.7L899.8 31.1L806.8 66.7L809.1 63.9L811.6 61.1Z" fill="#102b51" stroke="#102b51" stroke-width=".55"/>
<path d="M901.0 31.6L895.9 32.6M897.1 32.9L891.9 34.1M893.0 34.2L887.9 35.6M889.0 35.5L883.9 37.1M884.9 36.8L879.8 38.6M880.9 38.2L875.7 40.2M876.7 39.5L871.6 41.7M872.6 40.9L867.5 43.3M868.4 42.2L863.3 44.9M864.2 43.6L859.2 46.5M860.0 45.0L854.9 48.1M855.7 46.4L850.7 49.7M851.4 47.8L846.4 51.4M847.1 49.3L842.1 53.0M842.8 50.7L837.8 54.7M838.4 52.2L833.5 56.3M834.0 53.6L829.1 58.0M829.6 55.1L824.7 59.7M825.2 56.6L820.3 61.5M820.7 58.1L815.8 63.2M816.2 59.6L811.3 64.9" stroke="url(#ribbon-thread)" stroke-opacity="0.68" stroke-width="1"/>
<path d="M905.0 30.3L902.4 30.7L899.8 31.1M811.6 61.1L809.1 63.9L806.8 66.7" stroke="url(#ribbon-edge)" stroke-opacity="0.68" stroke-width="1.5"/>
<path d="M1121.0 242.4L1122.4 239.3L1123.5 236.0L1011.4 183.7L1010.6 186.0L1009.7 188.3Z" fill="#0e2343" stroke="#0e2343" stroke-width=".55"/>
<path d="M1115.8 239.9L1118.2 233.6M1110.7 237.4L1113.0 231.1M1105.5 234.9L1107.8 228.7M1100.4 232.4L1102.6 226.3M1095.3 229.9L1097.4 223.8M1090.2 227.4L1092.2 221.4M1085.0 224.9L1087.1 219.0M1080.0 222.5L1081.9 216.6M1074.9 220.0L1076.8 214.2M1069.8 217.5L1071.7 211.8M1064.7 215.1L1066.6 209.4M1059.7 212.6L1061.5 207.1M1054.6 210.2L1056.4 204.7M1049.6 207.7L1051.4 202.3M1044.6 205.3L1046.3 200.0M1039.5 202.8L1041.3 197.6M1034.5 200.4L1036.3 195.3M1029.5 198.0L1031.3 192.9M1024.6 195.6L1026.3 190.6M1019.6 193.1L1021.3 188.3M1014.6 190.7L1016.3 186.0" stroke="url(#ribbon-thread)" stroke-opacity="0.57" stroke-width="1"/>
<path d="M1121.0 242.4L1122.4 239.3L1123.5 236.0M1009.7 188.3L1010.6 186.0L1011.4 183.7" stroke="url(#ribbon-edge)" stroke-opacity="0.57" stroke-width="1.5"/>
<path d="M910.4 30.1L907.7 30.2L905.0 30.3L811.6 61.1L814.4 58.5L817.3 56.1Z" fill="#102b51" stroke="#102b51" stroke-width=".55"/>
<path d="M906.4 31.2L901.0 31.6M902.5 32.2L897.1 32.9M898.5 33.3L893.0 34.2M894.5 34.4L889.0 35.5M890.4 35.5L884.9 36.8M886.3 36.6L880.9 38.2M882.2 37.8L876.7 39.5M878.1 38.9L872.6 40.9M874.0 40.1L868.4 42.2M869.8 41.2L864.2 43.6M865.5 42.4L860.0 45.0M861.3 43.6L855.7 46.4M857.0 44.8L851.4 47.8M852.7 46.0L847.1 49.3M848.4 47.2L842.8 50.7M844.0 48.4L838.4 52.2M839.6 49.7L834.0 53.6M835.2 50.9L829.6 55.1M830.8 52.2L825.2 56.6M826.3 53.5L820.7 58.1M821.8 54.8L816.2 59.6" stroke="url(#ribbon-thread)" stroke-opacity="0.68" stroke-width="1"/>
<path d="M910.4 30.1L907.7 30.2L905.0 30.3M817.3 56.1L814.4 58.5L811.6 61.1" stroke="url(#ribbon-edge)" stroke-opacity="0.68" stroke-width="1.5"/>
<path d="M1123.5 236.0L1124.4 232.5L1125.0 228.9L1012.8 178.8L1012.1 181.3L1011.4 183.7Z" fill="#0e2343" stroke="#0e2343" stroke-width=".55"/>
<path d="M1118.2 233.6L1119.7 226.6M1113.0 231.1L1114.4 224.2M1107.8 228.7L1109.2 221.9M1102.6 226.3L1104.0 219.5M1097.4 223.8L1098.8 217.2M1092.2 221.4L1093.6 214.9M1087.1 219.0L1088.4 212.6M1081.9 216.6L1083.2 210.3M1076.8 214.2L1078.1 208.0M1071.7 211.8L1073.0 205.7M1066.6 209.4L1067.8 203.4M1061.5 207.1L1062.8 201.1M1056.4 204.7L1057.7 198.9M1051.4 202.3L1052.6 196.6M1046.3 200.0L1047.6 194.4M1041.3 197.6L1042.6 192.1M1036.3 195.3L1037.6 189.9M1031.3 192.9L1032.6 187.7M1026.3 190.6L1027.6 185.5M1021.3 188.3L1022.7 183.2M1016.3 186.0L1017.7 181.0" stroke="url(#ribbon-thread)" stroke-opacity="0.58" stroke-width="1"/>
<path d="M1123.5 236.0L1124.4 232.5L1125.0 228.9M1011.4 183.7L1012.1 181.3L1012.8 178.8" stroke="url(#ribbon-edge)" stroke-opacity="0.58" stroke-width="1.5"/>
<path d="M915.9 30.4L913.1 30.2L910.4 30.1L817.3 56.1L820.4 53.7L823.8 51.5Z" fill="#112c52" stroke="#112c52" stroke-width=".55"/>
<path d="M912.0 31.2L906.4 31.2M908.1 32.1L902.5 32.2M904.2 33.0L898.5 33.3M900.2 33.9L894.5 34.4M896.2 34.8L890.4 35.5M892.2 35.7L886.3 36.6M888.1 36.6L882.2 37.8M884.0 37.5L878.1 38.9M879.9 38.4L874.0 40.1M875.8 39.4L869.8 41.2M871.6 40.3L865.5 42.4M867.4 41.3L861.3 43.6M863.2 42.3L857.0 44.8M858.9 43.2L852.7 46.0M854.6 44.2L848.4 47.2M850.3 45.2L844.0 48.4M846.0 46.3L839.6 49.7M841.6 47.3L835.2 50.9M837.2 48.3L830.8 52.2M832.7 49.4L826.3 53.5M828.3 50.4L821.8 54.8" stroke="url(#ribbon-thread)" stroke-opacity="0.69" stroke-width="1"/>
<path d="M915.9 30.4L913.1 30.2L910.4 30.1M823.8 51.5L820.4 53.7L817.3 56.1" stroke="url(#ribbon-edge)" stroke-opacity="0.69" stroke-width="1.5"/>
<path d="M1012.8 178.8L1013.5 176.4L1014.0 173.9L1125.5 221.2L1125.4 225.2L1125.0 228.9Z" fill="#0e2343" stroke="#0e2343" stroke-width=".55"/>
<path d="M1017.7 181.0L1018.9 175.9M1022.7 183.2L1023.7 178.0M1027.6 185.5L1028.6 180.1M1032.6 187.7L1033.5 182.2M1037.6 189.9L1038.5 184.3M1042.6 192.1L1043.4 186.4M1047.6 194.4L1048.4 188.5M1052.6 196.6L1053.4 190.6M1057.7 198.9L1058.4 192.7M1062.8 201.1L1063.4 194.9M1067.8 203.4L1068.5 197.0M1073.0 205.7L1073.6 199.2M1078.1 208.0L1078.7 201.3M1083.2 210.3L1083.8 203.5M1088.4 212.6L1088.9 205.7M1093.6 214.9L1094.1 207.9M1098.8 217.2L1099.3 210.1M1104.0 219.5L1104.5 212.3M1109.2 221.9L1109.7 214.5M1114.4 224.2L1114.9 216.8M1119.7 226.6L1120.2 219.0" stroke="url(#ribbon-thread)" stroke-opacity="0.58" stroke-width="1"/>
<path d="M1012.8 178.8L1013.5 176.4L1014.0 173.9M1125.0 228.9L1125.4 225.2L1125.5 221.2" stroke="url(#ribbon-edge)" stroke-opacity="0.58" stroke-width="1.5"/>
<path d="M921.6 31.2L918.8 30.7L915.9 30.4L823.8 51.5L827.3 49.4L831.1 47.5Z" fill="#112c52" stroke="#112c52" stroke-width=".55"/>
<path d="M917.8 31.8L912.0 31.2M914.0 32.5L908.1 32.1M910.1 33.1L904.2 33.0M906.2 33.8L900.2 33.9M902.3 34.5L896.2 34.8M898.3 35.2L892.2 35.7M894.4 35.9L888.1 36.6M890.3 36.6L884.0 37.5M886.3 37.3L879.9 38.4M882.2 38.0L875.8 39.4M878.1 38.8L871.6 40.3M874.0 39.5L867.4 41.3M869.9 40.3L863.2 42.3M865.7 41.0L858.9 43.2M861.5 41.8L854.6 44.2M857.2 42.6L850.3 45.2M852.9 43.4L846.0 46.3M848.6 44.2L841.6 47.3M844.3 45.0L837.2 48.3M839.9 45.8L832.7 49.4M835.5 46.6L828.3 50.4" stroke="url(#ribbon-thread)" stroke-opacity="0.69" stroke-width="1"/>
<path d="M921.6 31.2L918.8 30.7L915.9 30.4M831.1 47.5L827.3 49.4L823.8 51.5" stroke="url(#ribbon-edge)" stroke-opacity="0.69" stroke-width="1.5"/>
<path d="M1014.0 173.9L1014.5 171.3L1015.0 168.8L1124.9 213.0L1125.3 217.2L1125.5 221.2Z" fill="#0e2343" stroke="#0e2343" stroke-width=".55"/>
<path d="M1018.9 175.9L1019.7 170.7M1023.7 178.0L1024.5 172.6M1028.6 180.1L1029.3 174.5M1033.5 182.2L1034.1 176.5M1038.5 184.3L1038.9 178.4M1043.4 186.4L1043.8 180.4M1048.4 188.5L1048.7 182.3M1053.4 190.6L1053.6 184.3M1058.4 192.7L1058.5 186.3M1063.4 194.9L1063.5 188.3M1068.5 197.0L1068.5 190.3M1073.6 199.2L1073.5 192.3M1078.7 201.3L1078.5 194.3M1083.8 203.5L1083.6 196.4M1088.9 205.7L1088.7 198.4M1094.1 207.9L1093.8 200.4M1099.3 210.1L1098.9 202.5M1104.5 212.3L1104.1 204.6M1109.7 214.5L1109.2 206.7M1114.9 216.8L1114.4 208.7M1120.2 219.0L1119.7 210.8" stroke="url(#ribbon-thread)" stroke-opacity="0.58" stroke-width="1"/>
<path d="M1014.0 173.9L1014.5 171.3L1015.0 168.8M1125.5 221.2L1125.3 217.2L1124.9 213.0" stroke="url(#ribbon-edge)" stroke-opacity="0.58" stroke-width="1.5"/>
<path d="M927.4 32.5L924.5 31.8L921.6 31.2L831.1 47.5L835.1 45.7L839.3 44.1Z" fill="#112c52" stroke="#112c52" stroke-width=".55"/>
<path d="M923.7 32.9L917.8 31.8M920.0 33.4L914.0 32.5M916.2 33.8L910.1 33.1M912.4 34.3L906.2 33.8M908.6 34.8L902.3 34.5M904.8 35.3L898.3 35.2M900.9 35.8L894.4 35.9M897.0 36.3L890.3 36.6M893.1 36.8L886.3 37.3M889.1 37.3L882.2 38.0M885.1 37.8L878.1 38.8M881.1 38.3L874.0 39.5M877.1 38.9L869.9 40.3M873.0 39.4L865.7 41.0M868.9 40.0L861.5 41.8M864.7 40.5L857.2 42.6M860.6 41.1L852.9 43.4M856.4 41.7L848.6 44.2M852.1 42.3L844.3 45.0M847.9 42.9L839.9 45.8M843.6 43.4L835.5 46.6" stroke="url(#ribbon-thread)" stroke-opacity="0.69" stroke-width="1"/>
<path d="M927.4 32.5L924.5 31.8L921.6 31.2M839.3 44.1L835.1 45.7L831.1 47.5" stroke="url(#ribbon-edge)" stroke-opacity="0.69" stroke-width="1.5"/>
<path d="M1015.0 168.8L1015.3 166.2L1015.6 163.5L1123.3 204.2L1124.2 208.6L1124.9 213.0Z" fill="#0e2343" stroke="#0e2343" stroke-width=".55"/>
<path d="M1019.7 170.7L1020.2 165.3M1024.5 172.6L1024.9 167.0M1029.3 174.5L1029.5 168.8M1034.1 176.5L1034.2 170.6M1038.9 178.4L1039.0 172.3M1043.8 180.4L1043.7 174.1M1048.7 182.3L1048.5 175.9M1053.6 184.3L1053.3 177.7M1058.5 186.3L1058.1 179.6M1063.5 188.3L1063.0 181.4M1068.5 190.3L1067.9 183.2M1073.5 192.3L1072.8 185.1M1078.5 194.3L1077.7 187.0M1083.6 196.4L1082.7 188.8M1088.7 198.4L1087.6 190.7M1093.8 200.4L1092.6 192.6M1098.9 202.5L1097.7 194.5M1104.1 204.6L1102.7 196.4M1109.2 206.7L1107.8 198.3M1114.4 208.7L1112.9 200.3M1119.7 210.8L1118.1 202.2" stroke="url(#ribbon-thread)" stroke-opacity="0.58" stroke-width="1"/>
<path d="M1015.0 168.8L1015.3 166.2L1015.6 163.5M1124.9 213.0L1124.2 208.6L1123.3 204.2" stroke="url(#ribbon-edge)" stroke-opacity="0.58" stroke-width="1.5"/>
<path d="M933.2 34.2L930.3 33.3L927.4 32.5L839.3 44.1L843.7 42.6L848.3 41.3Z" fill="#112b52" stroke="#112b52" stroke-width=".55"/>
<path d="M929.6 34.5L923.7 32.9M926.0 34.8L920.0 33.4M922.4 35.0L916.2 33.8M918.8 35.3L912.4 34.3M915.1 35.6L908.6 34.8M911.4 35.9L904.8 35.3M907.7 36.2L900.9 35.8M903.9 36.5L897.0 36.3M900.2 36.8L893.1 36.8M896.3 37.1L889.1 37.3M892.5 37.4L885.1 37.8M888.6 37.7L881.1 38.3M884.7 38.1L877.1 38.9M880.8 38.4L873.0 39.4M876.8 38.7L868.9 40.0M872.8 39.1L864.7 40.5M868.8 39.4L860.6 41.1M864.8 39.8L856.4 41.7M860.7 40.2L852.1 42.3M856.6 40.6L847.9 42.9M852.4 40.9L843.6 43.4" stroke="url(#ribbon-thread)" stroke-opacity="0.69" stroke-width="1"/>
<path d="M933.2 34.2L930.3 33.3L927.4 32.5M848.3 41.3L843.7 42.6L839.3 44.1" stroke="url(#ribbon-edge)" stroke-opacity="0.69" stroke-width="1.5"/>
<path d="M1015.6 163.5L1015.8 160.9L1016.0 158.2L1120.5 194.9L1122.0 199.6L1123.3 204.2Z" fill="#0e2343" stroke="#0e2343" stroke-width=".55"/>
<path d="M1020.2 165.3L1020.4 159.7M1024.9 167.0L1024.9 161.3M1029.5 168.8L1029.4 162.9M1034.2 170.6L1034.0 164.5M1039.0 172.3L1038.6 166.1M1043.7 174.1L1043.2 167.7M1048.5 175.9L1047.8 169.3M1053.3 177.7L1052.4 171.0M1058.1 179.6L1057.1 172.6M1063.0 181.4L1061.8 174.3M1067.9 183.2L1066.6 175.9M1072.8 185.1L1071.3 177.6M1077.7 187.0L1076.1 179.3M1082.7 188.8L1080.9 181.0M1087.6 190.7L1085.8 182.7M1092.6 192.6L1090.7 184.4M1097.7 194.5L1095.6 186.1M1102.7 196.4L1100.5 187.9M1107.8 198.3L1105.5 189.6M1112.9 200.3L1110.4 191.4M1118.1 202.2L1115.5 193.1" stroke="url(#ribbon-thread)" stroke-opacity="0.58" stroke-width="1"/>
<path d="M1015.6 163.5L1015.8 160.9L1016.0 158.2M1123.3 204.2L1122.0 199.6L1120.5 194.9" stroke="url(#ribbon-edge)" stroke-opacity="0.58" stroke-width="1.5"/>
<path d="M939.0 36.5L936.1 35.3L933.2 34.2L848.3 41.3L853.0 40.2L858.0 39.3Z" fill="#102b51" stroke="#102b51" stroke-width=".55"/>
<path d="M935.6 36.6L929.6 34.5M932.2 36.6L926.0 34.8M928.8 36.7L922.4 35.0M925.3 36.8L918.8 35.3M921.8 36.9L915.1 35.6M918.3 37.0L911.4 35.9M914.7 37.1L907.7 36.2M911.2 37.2L903.9 36.5M907.6 37.3L900.2 36.8M903.9 37.5L896.3 37.1M900.3 37.6L892.5 37.4M896.6 37.7L888.6 37.7M892.8 37.9L884.7 38.1M889.1 38.0L880.8 38.4M885.3 38.1L876.8 38.7M881.5 38.3L872.8 39.1M877.7 38.5L868.8 39.4M873.8 38.6L864.8 39.8M869.9 38.8L860.7 40.2M866.0 39.0L856.6 40.6M862.0 39.1L852.4 40.9" stroke="url(#ribbon-thread)" stroke-opacity="0.68" stroke-width="1"/>
<path d="M939.0 36.5L936.1 35.3L933.2 34.2M858.0 39.3L853.0 40.2L848.3 41.3" stroke="url(#ribbon-edge)" stroke-opacity="0.68" stroke-width="1.5"/>
<path d="M1016.0 158.2L1016.1 155.5L1016.1 152.7L1116.6 185.3L1118.7 190.1L1120.5 194.9Z" fill="#0d2342" stroke="#0d2342" stroke-width=".55"/>
<path d="M1020.4 159.7L1020.4 154.1M1024.9 161.3L1024.7 155.5M1029.4 162.9L1029.0 156.9M1034.0 164.5L1033.3 158.3M1038.6 166.1L1037.7 159.7M1043.2 167.7L1042.1 161.1M1047.8 169.3L1046.6 162.6M1052.4 171.0L1051.0 164.0M1057.1 172.6L1055.5 165.5M1061.8 174.3L1060.1 166.9M1066.6 175.9L1064.6 168.4M1071.3 177.6L1069.2 169.9M1076.1 179.3L1073.8 171.4M1080.9 181.0L1078.5 172.9M1085.8 182.7L1083.1 174.4M1090.7 184.4L1087.8 175.9M1095.6 186.1L1092.6 177.5M1100.5 187.9L1097.3 179.0M1105.5 189.6L1102.1 180.5M1110.4 191.4L1106.9 182.1M1115.5 193.1L1111.8 183.7" stroke="url(#ribbon-thread)" stroke-opacity="0.57" stroke-width="1"/>
<path d="M1016.0 158.2L1016.1 155.5L1016.1 152.7M1120.5 194.9L1118.7 190.1L1116.6 185.3" stroke="url(#ribbon-edge)" stroke-opacity="0.57" stroke-width="1.5"/>
<path d="M944.8 39.1L941.9 37.8L939.0 36.5L858.0 39.3L863.2 38.6L868.5 38.0Z" fill="#102b51" stroke="#102b51" stroke-width=".55"/>
<path d="M941.6 39.1L935.6 36.6M938.4 39.0L932.2 36.6M935.2 38.9L928.8 36.7M931.9 38.8L925.3 36.8M928.6 38.7L921.8 36.9M925.3 38.7L918.3 37.0M922.0 38.6L914.7 37.1M918.6 38.5L911.2 37.2M915.2 38.5L907.6 37.3M911.8 38.4L903.9 37.5M908.3 38.4L900.3 37.6M904.9 38.3L896.6 37.7M901.4 38.3L892.8 37.9M897.8 38.2L889.1 38.0M894.2 38.2L885.3 38.1M890.7 38.2L881.5 38.3M887.0 38.1L877.7 38.5M883.4 38.1L873.8 38.6M879.7 38.1L869.9 38.8M876.0 38.1L866.0 39.0M872.3 38.1L862.0 39.1" stroke="url(#ribbon-thread)" stroke-opacity="0.68" stroke-width="1"/>
<path d="M944.8 39.1L941.9 37.8L939.0 36.5M868.5 38.0L863.2 38.6L858.0 39.3" stroke="url(#ribbon-edge)" stroke-opacity="0.68" stroke-width="1.5"/>
<path d="M1016.1 152.7L1016.0 150.0L1015.9 147.2L1111.7 175.3L1114.3 180.3L1116.6 185.3Z" fill="#0d2241" stroke="#0d2241" stroke-width=".55"/>
<path d="M1020.4 154.1L1019.9 148.3M1024.7 155.5L1024.0 149.5M1029.0 156.9L1028.1 150.7M1033.3 158.3L1032.3 151.9M1037.7 159.7L1036.4 153.2M1042.1 161.1L1040.6 154.4M1046.6 162.6L1044.8 155.6M1051.0 164.0L1049.1 156.9M1055.5 165.5L1053.4 158.1M1060.1 166.9L1057.7 159.4M1064.6 168.4L1062.0 160.7M1069.2 169.9L1066.4 162.0M1073.8 171.4L1070.8 163.3M1078.5 172.9L1075.2 164.6M1083.1 174.4L1079.7 165.9M1087.8 175.9L1084.2 167.2M1092.6 177.5L1088.7 168.5M1097.3 179.0L1093.2 169.9M1102.1 180.5L1097.8 171.2M1106.9 182.1L1102.4 172.6M1111.8 183.7L1107.0 173.9" stroke="url(#ribbon-thread)" stroke-opacity="0.57" stroke-width="1"/>
<path d="M1016.1 152.7L1016.0 150.0L1015.9 147.2M1116.6 185.3L1114.3 180.3L1111.7 175.3" stroke="url(#ribbon-edge)" stroke-opacity="0.57" stroke-width="1.5"/>
<path d="M950.5 42.2L947.6 40.6L944.8 39.1L868.5 38.0L874.0 37.7L879.6 37.6Z" fill="#102a50" stroke="#102a50" stroke-width=".55"/>
<path d="M947.5 42.0L941.6 39.1M944.6 41.7L938.4 39.0M941.6 41.5L935.2 38.9M938.6 41.3L931.9 38.8M935.5 41.1L928.6 38.7M932.5 40.8L925.3 38.7M929.4 40.6L922.0 38.6M926.2 40.4L918.6 38.5M923.1 40.2L915.2 38.5M919.9 40.0L911.8 38.4M916.7 39.8L908.3 38.4M913.5 39.5L904.9 38.3M910.2 39.3L901.4 38.3M906.9 39.1L897.8 38.2M903.6 38.9L894.2 38.2M900.3 38.7L890.7 38.2M896.9 38.5L887.0 38.1M893.5 38.3L883.4 38.1M890.1 38.1L879.7 38.1M886.6 38.0L876.0 38.1M883.2 37.8L872.3 38.1" stroke="url(#ribbon-thread)" stroke-opacity="0.67" stroke-width="1"/>
<path d="M950.5 42.2L947.6 40.6L944.8 39.1M879.6 37.6L874.0 37.7L868.5 38.0" stroke="url(#ribbon-edge)" stroke-opacity="0.67" stroke-width="1.5"/>
<path d="M1015.9 147.2L1015.7 144.3L1015.4 141.5L1105.7 165.2L1108.8 170.3L1111.7 175.3Z" fill="#0d2240" stroke="#0d2240" stroke-width=".55"/>
<path d="M1019.9 148.3L1019.2 142.5M1024.0 149.5L1023.0 143.5M1028.1 150.7L1026.9 144.5M1032.3 151.9L1030.8 145.5M1036.4 153.2L1034.7 146.5M1040.6 154.4L1038.6 147.6M1044.8 155.6L1042.6 148.6M1049.1 156.9L1046.6 149.6M1053.4 158.1L1050.6 150.7M1057.7 159.4L1054.7 151.8M1062.0 160.7L1058.8 152.8M1066.4 162.0L1062.9 153.9M1070.8 163.3L1067.0 155.0M1075.2 164.6L1071.2 156.1M1079.7 165.9L1075.4 157.2M1084.2 167.2L1079.7 158.3M1088.7 168.5L1083.9 159.4M1093.2 169.9L1088.2 160.5M1097.8 171.2L1092.5 161.7M1102.4 172.6L1096.9 162.8M1107.0 173.9L1101.3 164.0" stroke="url(#ribbon-thread)" stroke-opacity="0.56" stroke-width="1"/>
<path d="M1015.9 147.2L1015.7 144.3L1015.4 141.5M1111.7 175.3L1108.8 170.3L1105.7 165.2" stroke="url(#ribbon-edge)" stroke-opacity="0.56" stroke-width="1.5"/>
<path d="M956.1 45.7L953.3 43.9L950.5 42.2L879.6 37.6L885.5 37.6L891.4 37.9Z" fill="#102a4e" stroke="#102a4e" stroke-width=".55"/>
<path d="M953.4 45.3L947.5 42.0M950.7 45.0L944.6 41.7M948.0 44.6L941.6 41.5M945.2 44.2L938.6 41.3M942.5 43.9L935.5 41.1M939.7 43.5L932.5 40.8M936.8 43.1L929.4 40.6M934.0 42.8L926.2 40.4M931.1 42.4L923.1 40.2M928.2 42.1L919.9 40.0M925.3 41.7L916.7 39.8M922.4 41.4L913.5 39.5M919.4 41.0L910.2 39.3M916.4 40.7L906.9 39.1M913.3 40.3L903.6 38.9M910.3 40.0L900.3 38.7M907.2 39.6L896.9 38.5M904.1 39.3L893.5 38.3M901.0 38.9L890.1 38.1M897.8 38.6L886.6 38.0M894.6 38.3L883.2 37.8" stroke="url(#ribbon-thread)" stroke-opacity="0.66" stroke-width="1"/>
<path d="M956.1 45.7L953.3 43.9L950.5 42.2M891.4 37.9L885.5 37.6L879.6 37.6" stroke="url(#ribbon-edge)" stroke-opacity="0.66" stroke-width="1.5"/>
<path d="M1015.4 141.5L1015.1 138.7L1014.6 135.8L1098.6 154.8L1102.3 160.0L1105.7 165.2Z" fill="#0d213f" stroke="#0d213f" stroke-width=".55"/>
<path d="M1019.2 142.5L1018.2 136.6M1023.0 143.5L1021.7 137.4M1026.9 144.5L1025.3 138.2M1030.8 145.5L1028.9 139.0M1034.7 146.5L1032.5 139.8M1038.6 147.6L1036.2 140.6M1042.6 148.6L1039.9 141.5M1046.6 149.6L1043.6 142.3M1050.6 150.7L1047.3 143.2M1054.7 151.8L1051.1 144.0M1058.8 152.8L1054.9 144.9M1062.9 153.9L1058.7 145.7M1067.0 155.0L1062.6 146.6M1071.2 156.1L1066.5 147.5M1075.4 157.2L1070.4 148.4M1079.7 158.3L1074.3 149.3M1083.9 159.4L1078.3 150.2M1088.2 160.5L1082.3 151.1M1092.5 161.7L1086.3 152.0M1096.9 162.8L1090.4 153.0M1101.3 164.0L1094.5 153.9" stroke="url(#ribbon-thread)" stroke-opacity="0.55" stroke-width="1"/>
<path d="M1015.4 141.5L1015.1 138.7L1014.6 135.8M1105.7 165.2L1102.3 160.0L1098.6 154.8" stroke="url(#ribbon-edge)" stroke-opacity="0.55" stroke-width="1.5"/>
<path d="M961.5 49.5L958.8 47.5L956.1 45.7L891.4 37.9L897.5 38.4L903.8 39.1Z" fill="#10294d" stroke="#10294d" stroke-width=".55"/>
<path d="M959.1 49.0L953.4 45.3M956.7 48.6L950.7 45.0M954.3 48.1L948.0 44.6M951.9 47.6L945.2 44.2M949.4 47.1L942.5 43.9M946.9 46.7L939.7 43.5M944.4 46.2L936.8 43.1M941.8 45.7L934.0 42.8M939.3 45.2L931.1 42.4M936.7 44.8L928.2 42.1M934.1 44.3L925.3 41.7M931.4 43.8L922.4 41.4M928.8 43.3L919.4 41.0M926.1 42.9L916.4 40.7M923.4 42.4L913.3 40.3M920.7 41.9L910.3 40.0M917.9 41.5L907.2 39.6M915.1 41.0L904.1 39.3M912.3 40.5L901.0 38.9M909.5 40.0L897.8 38.6M906.6 39.6L894.6 38.3" stroke="url(#ribbon-thread)" stroke-opacity="0.65" stroke-width="1"/>
<path d="M961.5 49.5L958.8 47.5L956.1 45.7M903.8 39.1L897.5 38.4L891.4 37.9" stroke="url(#ribbon-edge)" stroke-opacity="0.65" stroke-width="1.5"/>
<path d="M1014.6 135.8L1014.1 132.9L1013.6 130.0L1090.5 144.5L1094.7 149.7L1098.6 154.8Z" fill="#0d203e" stroke="#0d203e" stroke-width=".55"/>
<path d="M1018.2 136.6L1016.8 130.6M1021.7 137.4L1020.0 131.2M1025.3 138.2L1023.3 131.8M1028.9 139.0L1026.6 132.4M1032.5 139.8L1029.9 133.0M1036.2 140.6L1033.3 133.7M1039.9 141.5L1036.6 134.3M1043.6 142.3L1040.0 134.9M1047.3 143.2L1043.5 135.6M1051.1 144.0L1046.9 136.2M1054.9 144.9L1050.4 136.9M1058.7 145.7L1053.9 137.5M1062.6 146.6L1057.5 138.2M1066.5 147.5L1061.0 138.9M1070.4 148.4L1064.6 139.6M1074.3 149.3L1068.2 140.2M1078.3 150.2L1071.9 140.9M1082.3 151.1L1075.6 141.6M1086.3 152.0L1079.3 142.3M1090.4 153.0L1083.0 143.1M1094.5 153.9L1086.7 143.8" stroke="url(#ribbon-thread)" stroke-opacity="0.54" stroke-width="1"/>
<path d="M1014.6 135.8L1014.1 132.9L1013.6 130.0M1098.6 154.8L1094.7 149.7L1090.5 144.5" stroke="url(#ribbon-edge)" stroke-opacity="0.54" stroke-width="1.5"/>
<path d="M966.8 53.6L964.2 51.5L961.5 49.5L903.8 39.1L910.1 40.0L916.6 41.1Z" fill="#0f284b" stroke="#0f284b" stroke-width=".55"/>
<path d="M964.7 53.1L959.1 49.0M962.7 52.5L956.7 48.6M960.6 52.0L954.3 48.1M958.4 51.4L951.9 47.6M956.3 50.8L949.4 47.1M954.1 50.3L946.9 46.7M952.0 49.7L944.4 46.2M949.7 49.1L941.8 45.7M947.5 48.6L939.3 45.2M945.3 48.0L936.7 44.8M943.0 47.4L934.1 44.3M940.7 46.9L931.4 43.8M938.4 46.3L928.8 43.3M936.0 45.7L926.1 42.9M933.7 45.2L923.4 42.4M931.3 44.6L920.7 41.9M928.9 44.0L917.9 41.5M926.5 43.4L915.1 41.0M924.0 42.9L912.3 40.5M921.6 42.3L909.5 40.0M919.1 41.7L906.6 39.6" stroke="url(#ribbon-thread)" stroke-opacity="0.64" stroke-width="1"/>
<path d="M966.8 53.6L964.2 51.5L961.5 49.5M916.6 41.1L910.1 40.0L903.8 39.1" stroke="url(#ribbon-edge)" stroke-opacity="0.64" stroke-width="1.5"/>
<path d="M1013.6 130.0L1012.9 127.1L1012.2 124.2L1081.5 134.2L1086.1 139.3L1090.5 144.5Z" fill="#0c1f3c" stroke="#0c1f3c" stroke-width=".55"/>
<path d="M1016.8 130.6L1015.1 124.6M1020.0 131.2L1018.0 125.0M1023.3 131.8L1020.9 125.4M1026.6 132.4L1023.9 125.8M1029.9 133.0L1026.9 126.3M1033.3 133.7L1029.9 126.7M1036.6 134.3L1032.9 127.1M1040.0 134.9L1036.0 127.6M1043.5 135.6L1039.1 128.0M1046.9 136.2L1042.2 128.4M1050.4 136.9L1045.3 128.9M1053.9 137.5L1048.5 129.4M1057.5 138.2L1051.7 129.8M1061.0 138.9L1054.9 130.3M1064.6 139.6L1058.1 130.8M1068.2 140.2L1061.4 131.2M1071.9 140.9L1064.7 131.7M1075.6 141.6L1068.0 132.2M1079.3 142.3L1071.3 132.7M1083.0 143.1L1074.7 133.2M1086.7 143.8L1078.1 133.7" stroke="url(#ribbon-thread)" stroke-opacity="0.53" stroke-width="1"/>
<path d="M1013.6 130.0L1012.9 127.1L1012.2 124.2M1090.5 144.5L1086.1 139.3L1081.5 134.2" stroke="url(#ribbon-edge)" stroke-opacity="0.53" stroke-width="1.5"/>
<path d="M971.9 58.1L969.4 55.8L966.8 53.6L916.6 41.1L923.1 42.5L929.7 44.0Z" fill="#0f274a" stroke="#0f274a" stroke-width=".55"/>
<path d="M970.2 57.5L964.7 53.1M968.5 56.8L962.7 52.5M966.7 56.2L960.6 52.0M964.9 55.6L958.4 51.4M963.1 55.0L956.3 50.8M961.3 54.3L954.1 50.3M959.5 53.7L952.0 49.7M957.6 53.1L949.7 49.1M955.8 52.4L947.5 48.6M953.9 51.8L945.3 48.0M952.0 51.2L943.0 47.4M950.0 50.5L940.7 46.9M948.1 49.9L938.4 46.3M946.1 49.2L936.0 45.7M944.2 48.6L933.7 45.2M942.2 47.9L931.3 44.6M940.1 47.3L928.9 44.0M938.1 46.6L926.5 43.4M936.0 46.0L924.0 42.9M934.0 45.3L921.6 42.3M931.9 44.7L919.1 41.7" stroke="url(#ribbon-thread)" stroke-opacity="0.63" stroke-width="1"/>
<path d="M971.9 58.1L969.4 55.8L966.8 53.6M929.7 44.0L923.1 42.5L916.6 41.1" stroke="url(#ribbon-edge)" stroke-opacity="0.63" stroke-width="1.5"/>
<path d="M1012.2 124.2L1011.4 121.3L1010.5 118.3L1071.6 124.0L1076.6 129.1L1081.5 134.2Z" fill="#0c1e3a" stroke="#0c1e3a" stroke-width=".55"/>
<path d="M1015.1 124.6L1013.0 118.6M1018.0 125.0L1015.6 118.8M1020.9 125.4L1018.2 119.0M1023.9 125.8L1020.8 119.2M1026.9 126.3L1023.4 119.5M1029.9 126.7L1026.1 119.7M1032.9 127.1L1028.8 120.0M1036.0 127.6L1031.5 120.2M1039.1 128.0L1034.2 120.5M1042.2 128.4L1036.9 120.7M1045.3 128.9L1039.7 121.0M1048.5 129.4L1042.5 121.2M1051.7 129.8L1045.3 121.5M1054.9 130.3L1048.1 121.8M1058.1 130.8L1051.0 122.0M1061.4 131.2L1053.9 122.3M1064.7 131.7L1056.8 122.6M1068.0 132.2L1059.7 122.9M1071.3 132.7L1062.6 123.1M1074.7 133.2L1065.6 123.4M1078.1 133.7L1068.6 123.7" stroke="url(#ribbon-thread)" stroke-opacity="0.52" stroke-width="1"/>
<path d="M1012.2 124.2L1011.4 121.3L1010.5 118.3M1081.5 134.2L1076.6 129.1L1071.6 124.0" stroke="url(#ribbon-edge)" stroke-opacity="0.52" stroke-width="1.5"/>
<path d="M976.8 62.8L974.4 60.4L971.9 58.1L929.7 44.0L936.5 45.8L943.2 47.8Z" fill="#0f2648" stroke="#0f2648" stroke-width=".55"/>
<path d="M975.4 62.1L970.2 57.5M974.1 61.5L968.5 56.8M972.7 60.8L966.7 56.2M971.3 60.1L964.9 55.6M969.8 59.5L963.1 55.0M968.4 58.8L961.3 54.3M966.9 58.1L959.5 53.7M965.5 57.5L957.6 53.1M964.0 56.8L955.8 52.4M962.5 56.1L953.9 51.8M961.0 55.4L952.0 51.2M959.4 54.7L950.0 50.5M957.9 54.0L948.1 49.9M956.3 53.3L946.1 49.2M954.7 52.7L944.2 48.6M953.1 52.0L942.2 47.9M951.5 51.3L940.1 47.3M949.9 50.6L938.1 46.6M948.3 49.9L936.0 46.0M946.6 49.2L934.0 45.3M944.9 48.5L931.9 44.7" stroke="url(#ribbon-thread)" stroke-opacity="0.61" stroke-width="1"/>
<path d="M976.8 62.8L974.4 60.4L971.9 58.1M943.2 47.8L936.5 45.8L929.7 44.0" stroke="url(#ribbon-edge)" stroke-opacity="0.61" stroke-width="1.5"/>
<path d="M1010.5 118.3L1009.5 115.4L1008.5 112.5L1060.8 114.1L1066.3 119.0L1071.6 124.0Z" fill="#0c1d39" stroke="#0c1d39" stroke-width=".55"/>
<path d="M1013.0 118.6L1010.7 112.5M1015.6 118.8L1012.9 112.6M1018.2 119.0L1015.1 112.6M1020.8 119.2L1017.3 112.7M1023.4 119.5L1019.6 112.7M1026.1 119.7L1021.9 112.8M1028.8 120.0L1024.1 112.9M1031.5 120.2L1026.5 112.9M1034.2 120.5L1028.8 113.0M1036.9 120.7L1031.1 113.1M1039.7 121.0L1033.5 113.1M1042.5 121.2L1035.9 113.2M1045.3 121.5L1038.3 113.3M1048.1 121.8L1040.7 113.4M1051.0 122.0L1043.2 113.5M1053.9 122.3L1045.7 113.5M1056.8 122.6L1048.1 113.6M1059.7 122.9L1050.6 113.7M1062.6 123.1L1053.2 113.8M1065.6 123.4L1055.7 113.9M1068.6 123.7L1058.3 114.0" stroke="url(#ribbon-thread)" stroke-opacity="0.50" stroke-width="1"/>
<path d="M1010.5 118.3L1009.5 115.4L1008.5 112.5M1071.6 124.0L1066.3 119.0L1060.8 114.1" stroke="url(#ribbon-edge)" stroke-opacity="0.50" stroke-width="1.5"/>
<path d="M981.4 67.7L979.2 65.2L976.8 62.8L943.2 47.8L950.1 49.9L956.9 52.3Z" fill="#0e2546" stroke="#0e2546" stroke-width=".55"/>
<path d="M980.5 67.1L975.4 62.1M979.5 66.4L974.1 61.5M978.5 65.7L972.7 60.8M977.4 65.0L971.3 60.1M976.4 64.3L969.8 59.5M975.3 63.7L968.4 58.8M974.3 63.0L966.9 58.1M973.2 62.3L965.5 57.5M972.1 61.6L964.0 56.8M971.0 60.9L962.5 56.1M969.9 60.2L961.0 55.4M968.8 59.5L959.4 54.7M967.7 58.8L957.9 54.0M966.5 58.1L956.3 53.3M965.4 57.4L954.7 52.7M964.2 56.7L953.1 52.0M963.0 55.9L951.5 51.3M961.8 55.2L949.9 50.6M960.6 54.5L948.3 49.9M959.4 53.8L946.6 49.2M958.2 53.0L944.9 48.5" stroke="url(#ribbon-thread)" stroke-opacity="0.60" stroke-width="1"/>
<path d="M981.4 67.7L979.2 65.2L976.8 62.8M956.9 52.3L950.1 49.9L943.2 47.8" stroke="url(#ribbon-edge)" stroke-opacity="0.60" stroke-width="1.5"/>
<path d="M1008.5 112.5L1007.4 109.6L1006.2 106.6L1049.4 104.5L1055.2 109.2L1060.8 114.1Z" fill="#0b1c37" stroke="#0b1c37" stroke-width=".55"/>
<path d="M1010.7 112.5L1008.0 106.5M1012.9 112.6L1009.8 106.4M1015.1 112.6L1011.6 106.3M1017.3 112.7L1013.5 106.2M1019.6 112.7L1015.3 106.1M1021.9 112.8L1017.2 106.0M1024.1 112.9L1019.1 105.9M1026.5 112.9L1021.0 105.8M1028.8 113.0L1022.9 105.7M1031.1 113.1L1024.9 105.6M1033.5 113.1L1026.8 105.5M1035.9 113.2L1028.8 105.4M1038.3 113.3L1030.8 105.3M1040.7 113.4L1032.8 105.2M1043.2 113.5L1034.8 105.1M1045.7 113.5L1036.9 105.0M1048.1 113.6L1038.9 104.9M1050.6 113.7L1041.0 104.8M1053.2 113.8L1043.0 104.7M1055.7 113.9L1045.1 104.6M1058.3 114.0L1047.2 104.5" stroke="url(#ribbon-thread)" stroke-opacity="0.49" stroke-width="1"/>
<path d="M1008.5 112.5L1007.4 109.6L1006.2 106.6M1060.8 114.1L1055.2 109.2L1049.4 104.5" stroke="url(#ribbon-edge)" stroke-opacity="0.49" stroke-width="1.5"/>
<path d="M985.8 72.9L983.7 70.3L981.4 67.7L956.9 52.3L963.8 54.9L970.7 57.7Z" fill="#0e2444" stroke="#0e2444" stroke-width=".55"/>
<path d="M985.2 72.2L980.5 67.1M984.6 71.6L979.5 66.4M984.0 70.9L978.5 65.7M983.4 70.2L977.4 65.0M982.8 69.6L976.4 64.3M982.1 68.9L975.3 63.7M981.5 68.2L974.3 63.0M980.8 67.5L973.2 62.3M980.1 66.8L972.1 61.6M979.5 66.2L971.0 60.9M978.8 65.5L969.9 60.2M978.1 64.8L968.8 59.5M977.4 64.1L967.7 58.8M976.7 63.4L966.5 58.1M976.0 62.7L965.4 57.4M975.2 62.0L964.2 56.7M974.5 61.3L963.0 55.9M973.8 60.6L961.8 55.2M973.0 59.8L960.6 54.5M972.2 59.1L959.4 53.8M971.5 58.4L958.2 53.0" stroke="url(#ribbon-thread)" stroke-opacity="0.58" stroke-width="1"/>
<path d="M985.8 72.9L983.7 70.3L981.4 67.7M970.7 57.7L963.8 54.9L956.9 52.3" stroke="url(#ribbon-edge)" stroke-opacity="0.58" stroke-width="1.5"/>
<path d="M1006.2 106.6L1004.9 103.7L1003.5 100.8L1037.3 95.2L1043.4 99.8L1049.4 104.5Z" fill="#0b1c37" stroke="#0b1c37" stroke-width=".55"/>
<path d="M1008.0 106.5L1004.9 100.6M1009.8 106.4L1006.4 100.3M1011.6 106.3L1007.8 100.0M1013.5 106.2L1009.2 99.8M1015.3 106.1L1010.7 99.5M1017.2 106.0L1012.2 99.3M1019.1 105.9L1013.7 99.0M1021.0 105.8L1015.2 98.8M1022.9 105.7L1016.7 98.5M1024.9 105.6L1018.2 98.3M1026.8 105.5L1019.7 98.0M1028.8 105.4L1021.2 97.8M1030.8 105.3L1022.8 97.5M1032.8 105.2L1024.4 97.3M1034.8 105.1L1025.9 97.0M1036.9 105.0L1027.5 96.8M1038.9 104.9L1029.1 96.5M1041.0 104.8L1030.7 96.2M1043.0 104.7L1032.3 96.0M1045.1 104.6L1034.0 95.7M1047.2 104.5L1035.6 95.5" stroke="url(#ribbon-thread)" stroke-opacity="0.49" stroke-width="1"/>
<path d="M1006.2 106.6L1004.9 103.7L1003.5 100.8M1049.4 104.5L1043.4 99.8L1037.3 95.2" stroke="url(#ribbon-edge)" stroke-opacity="0.49" stroke-width="1.5"/>
<path d="M990.0 78.2L987.9 75.5L985.8 72.9L970.7 57.7L977.6 60.7L984.5 63.8Z" fill="#0d2242" stroke="#0d2242" stroke-width=".55"/>
<path d="M989.8 77.6L985.2 72.2M989.6 77.0L984.6 71.6M989.3 76.3L984.0 70.9M989.1 75.7L983.4 70.2M988.9 75.1L982.8 69.6M988.7 74.4L982.1 68.9M988.5 73.8L981.5 68.2M988.2 73.1L980.8 67.5M988.0 72.5L980.1 66.8M987.7 71.9L979.5 66.2M987.5 71.2L978.8 65.5M987.2 70.5L978.1 64.8M987.0 69.9L977.4 64.1M986.7 69.2L976.7 63.4M986.5 68.6L976.0 62.7M986.2 67.9L975.2 62.0M985.9 67.2L974.5 61.3M985.6 66.6L973.8 60.6M985.3 65.9L973.0 59.8M985.1 65.2L972.2 59.1M984.8 64.5L971.5 58.4" stroke="url(#ribbon-thread)" stroke-opacity="0.57" stroke-width="1"/>
<path d="M990.0 78.2L987.9 75.5L985.8 72.9M984.5 63.8L977.6 60.7L970.7 57.7" stroke="url(#ribbon-edge)" stroke-opacity="0.57" stroke-width="1.5"/>
<path d="M1003.5 100.8L1002.1 97.9L1000.6 95.0L1024.6 86.5L1031.0 90.8L1037.3 95.2Z" fill="#0c1d39" stroke="#0c1d39" stroke-width=".55"/>
<path d="M1004.9 100.6L1001.6 94.6M1006.4 100.3L1002.6 94.3M1007.8 100.0L1003.7 93.9M1009.2 99.8L1004.7 93.5M1010.7 99.5L1005.7 93.1M1012.2 99.3L1006.8 92.7M1013.7 99.0L1007.8 92.4M1015.2 98.8L1008.9 92.0M1016.7 98.5L1010.0 91.6M1018.2 98.3L1011.1 91.2M1019.7 98.0L1012.1 90.8M1021.2 97.8L1013.2 90.4M1022.8 97.5L1014.3 90.0M1024.4 97.3L1015.5 89.6M1025.9 97.0L1016.6 89.3M1027.5 96.8L1017.7 88.9M1029.1 96.5L1018.8 88.5M1030.7 96.2L1020.0 88.1M1032.3 96.0L1021.1 87.7M1034.0 95.7L1022.3 87.3M1035.6 95.5L1023.5 86.9" stroke="url(#ribbon-thread)" stroke-opacity="0.50" stroke-width="1"/>
<path d="M1003.5 100.8L1002.1 97.9L1000.6 95.0M1037.3 95.2L1031.0 90.8L1024.6 86.5" stroke="url(#ribbon-edge)" stroke-opacity="0.50" stroke-width="1.5"/>
<path d="M993.8 83.7L991.9 81.0L990.0 78.2L984.5 63.8L991.3 67.2L998.1 70.7Z" fill="#0d2140" stroke="#0d2140" stroke-width=".55"/>
<path d="M994.0 83.2L989.8 77.6M994.2 82.6L989.6 77.0M994.4 82.0L989.3 76.3M994.6 81.4L989.1 75.7M994.8 80.9L988.9 75.1M995.0 80.3L988.7 74.4M995.2 79.7L988.5 73.8M995.4 79.1L988.2 73.1M995.6 78.5L988.0 72.5M995.8 78.0L987.7 71.9M996.0 77.4L987.5 71.2M996.2 76.8L987.2 70.5M996.4 76.2L987.0 69.9M996.6 75.6L986.7 69.2M996.8 75.0L986.5 68.6M997.0 74.4L986.2 67.9M997.2 73.8L985.9 67.2M997.4 73.2L985.6 66.6M997.5 72.6L985.3 65.9M997.7 72.0L985.1 65.2M997.9 71.3L984.8 64.5" stroke="url(#ribbon-thread)" stroke-opacity="0.55" stroke-width="1"/>
<path d="M993.8 83.7L991.9 81.0L990.0 78.2M998.1 70.7L991.3 67.2L984.5 63.8" stroke="url(#ribbon-edge)" stroke-opacity="0.55" stroke-width="1.5"/>
<path d="M1000.6 95.0L999.0 92.2L997.4 89.3L1011.5 78.3L1018.1 82.3L1024.6 86.5Z" fill="#0c1f3b" stroke="#0c1f3b" stroke-width=".55"/>
<path d="M1001.6 94.6L998.0 88.8M1002.6 94.3L998.6 88.4M1003.7 93.9L999.2 87.9M1004.7 93.5L999.8 87.4M1005.7 93.1L1000.4 86.9M1006.8 92.7L1001.1 86.4M1007.8 92.4L1001.7 85.9M1008.9 92.0L1002.3 85.4M1010.0 91.6L1002.9 84.9M1011.1 91.2L1003.6 84.4M1012.1 90.8L1004.2 83.9M1013.2 90.4L1004.9 83.4M1014.3 90.0L1005.5 82.9M1015.5 89.6L1006.2 82.4M1016.6 89.3L1006.8 81.9M1017.7 88.9L1007.5 81.4M1018.8 88.5L1008.2 80.9M1020.0 88.1L1008.8 80.4M1021.1 87.7L1009.5 79.9M1022.3 87.3L1010.2 79.3M1023.5 86.9L1010.9 78.8" stroke="url(#ribbon-thread)" stroke-opacity="0.52" stroke-width="1"/>
<path d="M1000.6 95.0L999.0 92.2L997.4 89.3M1024.6 86.5L1018.1 82.3L1011.5 78.3" stroke="url(#ribbon-edge)" stroke-opacity="0.52" stroke-width="1.5"/>
<path d="M997.4 89.3L995.6 86.5L993.8 83.7L998.1 70.7L1004.9 74.4L1011.5 78.3Z" fill="#0c203d" stroke="#0c203d" stroke-width=".55"/>
<path d="M998.0 88.8L994.0 83.2M998.6 88.4L994.2 82.6M999.2 87.9L994.4 82.0M999.8 87.4L994.6 81.4M1000.4 86.9L994.8 80.9M1001.1 86.4L995.0 80.3M1001.7 85.9L995.2 79.7M1002.3 85.4L995.4 79.1M1002.9 84.9L995.6 78.5M1003.6 84.4L995.8 78.0M1004.2 83.9L996.0 77.4M1004.9 83.4L996.2 76.8M1005.5 82.9L996.4 76.2M1006.2 82.4L996.6 75.6M1006.8 81.9L996.8 75.0M1007.5 81.4L997.0 74.4M1008.2 80.9L997.2 73.8M1008.8 80.4L997.4 73.2M1009.5 79.9L997.5 72.6M1010.2 79.3L997.7 72.0M1010.9 78.8L997.9 71.3" stroke="url(#ribbon-thread)" stroke-opacity="0.54" stroke-width="1"/>
<path d="M997.4 89.3L995.6 86.5L993.8 83.7M1011.5 78.3L1004.9 74.4L998.1 70.7" stroke="url(#ribbon-edge)" stroke-opacity="0.54" stroke-width="1.5"/>

    </g>

    <!-- Identity. Text remains editable, with widely available font fallbacks. -->
    <g id="identity" font-family="Arial, Helvetica, 'Nimbus Sans', sans-serif">
      <g id="interests" fill="#9BBCED" font-size="16" font-weight="500" letter-spacing="2.1">
        <path d="M64 46h6v6h-6zM74 46h6v6h-6zM64 56h6v6h-6z" fill="#77BDFF"/>
        <path d="M74 56h6v6h-6z" fill="#3678DC"/>
        <text x="96" y="61">FINANCE</text>
        <circle cx="193" cy="55" r="1.6" fill="#5A7AA7"/>
        <text x="211" y="61">SOFTWARE</text>
        <circle cx="332" cy="55" r="1.6" fill="#5A7AA7"/>
        <text x="350" y="61">HEALTHCARE</text>
      </g>
      <text id="name" x="59" y="155" fill="#F4F7FD" font-size="90" font-weight="700" letter-spacing="-3.9">Dylan W. Lim</text>
      <text id="field" x="64" y="207" fill="#D3DFEF" font-size="32" font-weight="400" letter-spacing="-.65">Finance + Computer Science</text>
      <text id="university" x="65" y="244" fill="#A0B4CE" font-size="23" font-weight="400" letter-spacing=".05">Fordham University</text>
    </g>

    <!-- Contact strip. Contact details also appear as text in the description. -->
    <path d="M64 284.5H1136" stroke="url(#rule)"/>
    <g id="contacts" font-family="Arial, Helvetica, 'Nimbus Sans', sans-serif" font-size="23" font-weight="400" letter-spacing="-.2">
      <g id="website">
        <text x="64" y="328" fill="#E0EAF8">dylanwlim.com</text>
        <path d="M223 325l9-9m-9 0h9v9" stroke="#78B8FF" stroke-width="1.8" stroke-linecap="round" stroke-linejoin="round"/>
      </g>
      <path d="M269 309v20" stroke="#345071"/>
      <g id="email">
        <path d="M305 310.5h20v15h-20zM305 311.5l10 7.5 10-7.5" stroke="#779CCB" stroke-width="1.5" stroke-linecap="round" stroke-linejoin="round"/>
        <text x="339" y="328" fill="#D0DFF3">dylan@wlim.work</text>
      </g>
    </g>
    <rect x=".5" y=".5" width="1199" height="359" rx="21.5" stroke="#A5C5F7" stroke-opacity=".13"/>
  </g>
</svg>
