<svg width="1200" height="430" viewBox="0 0 1200 430" fill="none" xmlns="http://www.w3.org/2000/svg" aria-labelledby="title desc"><title id="title">Public product map for Dylan W. Lim</title><desc id="desc">A shadcn-style public product map showing Portfolio, PharmaPath, and Transcribble.</desc><defs><symbol id="iconPortfolio" viewBox="0 0 512 512"><path d="M112 344V168h88c52 0 88 36 88 88s-36 88-88 88zm222-176v176h72" stroke="currentColor" stroke-width="32" stroke-linecap="round" stroke-linejoin="round"/></symbol><symbol id="iconPharmaPath" viewBox="0 0 42 42"><path d="M18.5 10.5h5v8h8v5h-8v8h-5v-8h-8v-5h8z" fill="currentColor"/></symbol><symbol id="iconTranscribble" viewBox="0 0 512 512"><path d="M149.333 266.667a21.333 21.333 0 0 0 21.334-21.334v-42.666a21.333 21.333 0 0 1 42.666 0v138.666a21.333 21.333 0 0 0 42.667 0V170.667a21.333 21.333 0 0 1 42.667 0v138.666a21.333 21.333 0 0 0 42.666 0v-42.666a21.333 21.333 0 0 1 21.334-21.334" stroke="currentColor" stroke-width="21.333" stroke-linecap="round" stroke-linejoin="round"/></symbol><radialGradient id="blueGlow" cx="0" cy="0" r="1" gradientUnits="userSpaceOnUse" gradientTransform="rotate(28 -108.517 384.906)scale(400 230)"><stop stop-color="#2563eb" stop-opacity=".18"/><stop offset=".58" stop-color="#2563eb" stop-opacity=".05"/><stop offset="1" stop-color="#2563eb" stop-opacity="0"/></radialGradient><radialGradient id="greenGlow" cx="0" cy="0" r="1" gradientUnits="userSpaceOnUse" gradientTransform="rotate(145 459.011 287.65)scale(360 240)"><stop stop-color="#14b8a6" stop-opacity=".1"/><stop offset=".65" stop-color="#14b8a6" stop-opacity=".03"/><stop offset="1" stop-color="#14b8a6" stop-opacity="0"/></radialGradient><linearGradient id="bg" x1="0" y1="0" x2="1200" y2="430" gradientUnits="userSpaceOnUse"><stop offset="0" stop-color="#09090b"/><stop offset="1" stop-color="#0c0c10"/></linearGradient><clipPath id="clip"><rect width="1200" height="430" rx="28"/></clipPath><pattern id="grid" width="32" height="32" patternUnits="userSpaceOnUse"><path d="M32 0H0v32" stroke="#fafafa" stroke-opacity=".035"/></pattern><filter id="cardShadow" x="-20%" y="-30%" width="140%" height="180%" color-interpolation-filters="sRGB"><feDropShadow dx="0" dy="14" stdDeviation="18" flood-color="#000" flood-opacity=".22"/></filter><style>.font{font-family:Geist,ui-sans-serif,system-ui,-apple-system,BlinkMacSystemFont,&quot;Segoe UI&quot;,sans-serif}.cardTitle{fill:#fafafa;font-size:18px;font-weight:650;letter-spacing:-.2px}.cardMeta,.domain{fill:#a1a1aa;font-size:12.5px;font-weight:500}.domain{fill:#e4e4e7;font-weight:550}.iconBox{fill:#18181b;stroke:#27272a}.mark{overflow:visible}</style></defs><g clip-path="url(#clip)"><rect width="1200" height="430" rx="28" fill="url(#bg)"/><path fill="url(#grid)" d="M0 0h1200v430H0z"/><path fill="url(#blueGlow)" d="M0 0h1200v430H0z"/><path fill="url(#greenGlow)" d="M0 0h1200v430H0z"/><g transform="translate(52 166)" filter="url(#cardShadow)"><rect width="318" height="98" rx="18" fill="#09090b" fill-opacity=".92"/><rect x=".5" y=".5" width="317" height="97" rx="17.5" stroke="#27272a"/><rect class="iconBox" x="20" y="28" width="42" height="42" rx="12"/><svg class="mark" x="20" y="28" width="42" height="42" viewBox="0 0 512 512" style="color:#fb923c"><use href="#iconPortfolio"/></svg><text class="font cardTitle" x="78" y="35">Portfolio</text><text class="font cardMeta" x="78" y="58">Public profile</text><text class="font domain" x="78" y="81">dylanwlim.com</text></g><g transform="translate(418 166)" filter="url(#cardShadow)"><rect width="318" height="98" rx="18" fill="#09090b" fill-opacity=".92"/><rect x=".5" y=".5" width="317" height="97" rx="17.5" stroke="#27272a"/><rect class="iconBox" x="20" y="28" width="42" height="42" rx="12"/><svg class="mark" x="20" y="28" width="42" height="42" viewBox="0 0 42 42" style="color:#18bdb8"><use href="#iconPharmaPath"/></svg><text class="font cardTitle" x="78" y="35">PharmaPath</text><text class="font cardMeta" x="78" y="58">Healthcare</text><text class="font domain" x="78" y="81">pharmapath.org</text></g><g transform="translate(784 166)" filter="url(#cardShadow)"><rect width="318" height="98" rx="18" fill="#09090b" fill-opacity=".92"/><rect x=".5" y=".5" width="317" height="97" rx="17.5" stroke="#27272a"/><rect class="iconBox" x="20" y="28" width="42" height="42" rx="12"/><svg class="mark" x="20" y="28" width="42" height="42" viewBox="0 0 512 512" style="color:#ef4444"><use href="#iconTranscribble"/></svg><text class="font cardTitle" x="78" y="35">Transcribble</text><text class="font cardMeta" x="78" y="58">Productivity</text><text class="font domain" x="78" y="81">transcribble.dylanwlim.com</text></g></g></svg>
