<svg width="1200" height="430" viewBox="0 0 1200 430" fill="none" xmlns="http://www.w3.org/2000/svg" aria-labelledby="title desc"><title id="title">Public product map for Dylan W. Lim</title><desc id="desc">A shadcn-style public product map showing public products and documentation surfaces.</desc><defs><symbol id="iconPortfolio" viewBox="0 0 512 512"><path d="M112 344V168h88c52 0 88 36 88 88s-36 88-88 88zm222-176v176h72" stroke="currentColor" stroke-width="32" stroke-linecap="round" stroke-linejoin="round"/></symbol><symbol id="iconPharmaPath" viewBox="0 0 42 42"><path d="M18.5 10.5h5v8h8v5h-8v8h-5v-8h-8v-5h8z" fill="currentColor"/></symbol><symbol id="iconAlpinix" viewBox="0 0 512 512"><path d="m256 156 114 196h-50l-64-112-64 112h-50z" fill="currentColor"/><path d="m256 286 40 66h-80z" fill="currentColor"/></symbol><symbol id="iconAscent" viewBox="0 0 42 42"><path d="m9.5 31.5 7.8-8.7 5.5 4.8 9.7-13.1" stroke="currentColor" stroke-width="3.6" stroke-linecap="round" stroke-linejoin="round"/><path d="M28.7 14.5h3.8v3.8" stroke="currentColor" stroke-width="3.6" stroke-linecap="round" stroke-linejoin="round"/></symbol><symbol id="iconTranscribble" viewBox="0 0 512 512"><path d="M149.333 266.667a21.333 21.333 0 0 0 21.334-21.334v-42.666a21.333 21.333 0 0 1 42.666 0v138.666a21.333 21.333 0 0 0 42.667 0V170.667a21.333 21.333 0 0 1 42.667 0v138.666a21.333 21.333 0 0 0 42.666 0v-42.666a21.333 21.333 0 0 1 21.334-21.334" stroke="currentColor" stroke-width="21.333" stroke-linecap="round" stroke-linejoin="round"/></symbol><symbol id="iconGames" viewBox="0 0 512 512"><g transform="translate(0 -60)" stroke="currentColor" stroke-linecap="round" stroke-linejoin="round"><path d="M151 215c-24 0-44 17-49 41l-14 85c-7 41 17 75 55 75 22 0 35-11 51-30l19-22c9-11 23-17 38-17h10c15 0 29 6 38 17l19 22c16 19 29 30 51 30 38 0 62-34 55-75l-14-85c-5-24-25-41-49-41z" stroke-width="24"/><path d="M168 287h50m-25-25v50" stroke-width="18"/><circle cx="314" cy="276" r="11" fill="currentColor" stroke="none"/><circle cx="352" cy="298" r="11" fill="currentColor" stroke="none"/></g></symbol><radialGradient id="blueGlow" cx="0" cy="0" r="1" gradientUnits="userSpaceOnUse" gradientTransform="rotate(28 -108.517 384.906)scale(400 230)"><stop stop-color="#2563eb" stop-opacity=".18"/><stop offset=".58" stop-color="#2563eb" stop-opacity=".05"/><stop offset="1" stop-color="#2563eb" stop-opacity="0"/></radialGradient><radialGradient id="greenGlow" cx="0" cy="0" r="1" gradientUnits="userSpaceOnUse" gradientTransform="rotate(145 459.011 287.65)scale(360 240)"><stop stop-color="#14b8a6" stop-opacity=".1"/><stop offset=".65" stop-color="#14b8a6" stop-opacity=".03"/><stop offset="1" stop-color="#14b8a6" stop-opacity="0"/></radialGradient><linearGradient id="bg" x1="0" y1="0" x2="1200" y2="430" gradientUnits="userSpaceOnUse"><stop offset="0" stop-color="#09090b"/><stop offset="1" stop-color="#0c0c10"/></linearGradient><clipPath id="clip"><rect width="1200" height="430" rx="28"/></clipPath><pattern id="grid" width="32" height="32" patternUnits="userSpaceOnUse"><path d="M32 0H0v32" stroke="#fafafa" stroke-opacity=".035"/></pattern><filter id="cardShadow" x="-20%" y="-30%" width="140%" height="180%" color-interpolation-filters="sRGB"><feDropShadow dx="0" dy="14" stdDeviation="18" flood-color="#000" flood-opacity=".22"/></filter><style>.font{font-family:Geist,ui-sans-serif,system-ui,-apple-system,BlinkMacSystemFont,&quot;Segoe UI&quot;,sans-serif}.cardTitle{fill:#fafafa;font-size:18px;font-weight:650;letter-spacing:-.2px}.cardMeta,.domain{fill:#a1a1aa;font-size:12.5px;font-weight:500}.domain{fill:#e4e4e7;font-weight:550}.iconBox{fill:#18181b;stroke:#27272a}.mark{overflow:visible}</style></defs><g clip-path="url(#clip)"><rect width="1200" height="430" rx="28" fill="url(#bg)"/><path fill="url(#grid)" d="M0 0h1200v430H0z"/><path fill="url(#blueGlow)" d="M0 0h1200v430H0z"/><path fill="url(#greenGlow)" d="M0 0h1200v430H0z"/><g transform="translate(52 92)" filter="url(#cardShadow)"><rect width="318" height="98" rx="18" fill="#09090b" fill-opacity=".92"/><rect x=".5" y=".5" width="317" height="97" rx="17.5" stroke="#27272a"/><rect class="iconBox" x="20" y="28" width="42" height="42" rx="12"/><svg class="mark" x="20" y="28" width="42" height="42" viewBox="0 0 512 512" style="color:#fb923c"><use href="#iconPortfolio"/></svg><text class="font cardTitle" x="78" y="35">Portfolio</text><text class="font cardMeta" x="78" y="58">Public profile</text><text class="font domain" x="78" y="81">dylanwlim.com</text></g><g transform="translate(418 92)" filter="url(#cardShadow)"><rect width="318" height="98" rx="18" fill="#09090b" fill-opacity=".92"/><rect x=".5" y=".5" width="317" height="97" rx="17.5" stroke="#27272a"/><rect class="iconBox" x="20" y="28" width="42" height="42" rx="12"/><svg class="mark" x="20" y="28" width="42" height="42" viewBox="0 0 42 42" style="color:#18bdb8"><use href="#iconPharmaPath"/></svg><text class="font cardTitle" x="78" y="35">PharmaPath</text><text class="font cardMeta" x="78" y="58">Healthcare</text><text class="font domain" x="78" y="81">pharmapath.org</text></g><g transform="translate(784 92)" filter="url(#cardShadow)"><rect width="318" height="98" rx="18" fill="#09090b" fill-opacity=".92"/><rect x=".5" y=".5" width="317" height="97" rx="17.5" stroke="#27272a"/><rect class="iconBox" x="20" y="28" width="42" height="42" rx="12"/><svg class="mark" x="20" y="28" width="42" height="42" viewBox="0 0 512 512" style="color:#fff"><use href="#iconAlpinix"/></svg><text class="font cardTitle" x="78" y="35">Alpinix</text><text class="font cardMeta" x="78" y="58">Operations</text><text class="font domain" x="78" y="81">alpinix.co</text></g><g transform="translate(52 216)" filter="url(#cardShadow)"><rect width="318" height="98" rx="18" fill="#09090b" fill-opacity=".92"/><rect x=".5" y=".5" width="317" height="97" rx="17.5" stroke="#27272a"/><rect class="iconBox" x="20" y="28" width="42" height="42" rx="12"/><svg class="mark" x="20" y="28" width="42" height="42" viewBox="0 0 42 42" style="color:#22c55e"><use href="#iconAscent"/></svg><text class="font cardTitle" x="78" y="35">Ascent</text><text class="font cardMeta" x="78" y="58">Finance</text><text class="font domain" x="78" y="81">ascent.dylanwlim.com</text></g><g transform="translate(418 216)" filter="url(#cardShadow)"><rect width="318" height="98" rx="18" fill="#09090b" fill-opacity=".92"/><rect x=".5" y=".5" width="317" height="97" rx="17.5" stroke="#27272a"/><rect class="iconBox" x="20" y="28" width="42" height="42" rx="12"/><svg class="mark" x="20" y="28" width="42" height="42" viewBox="0 0 512 512" style="color:#ef4444"><use href="#iconTranscribble"/></svg><text class="font cardTitle" x="78" y="35">Transcribble</text><text class="font cardMeta" x="78" y="58">Productivity</text><text class="font domain" x="78" y="81">transcribble.dylanwlim.com</text></g><g transform="translate(784 216)" filter="url(#cardShadow)"><rect width="318" height="98" rx="18" fill="#09090b" fill-opacity=".92"/><rect x=".5" y=".5" width="317" height="97" rx="17.5" stroke="#27272a"/><rect class="iconBox" x="20" y="28" width="42" height="42" rx="12"/><svg class="mark" x="20" y="28" width="42" height="42" viewBox="0 0 512 512" style="color:#8b5cf6"><use href="#iconGames"/></svg><text class="font cardTitle" x="78" y="35">Dylan Games</text><text class="font cardMeta" x="78" y="58">Browser games</text><text class="font domain" x="78" y="81">games.dylanwlim.com</text></g></g></svg>
